<?xml version="1.1" encoding="windows-1252"?>
<svg xmlns="http://www.w3.org/2000/svg"
    xmlns:latexdraw="http://latexdraw.sourceforge.net/namespaces/latexdraw"
    version="1.1" baseProfile="full">
    <g>
        <g latexdraw:type="circle" id="id2041902280">
            <circle cx="293.3333333333333" cy="106.66666666666669"
                r="65.66666666666669" latexdraw:borderPos="outer"
                stroke-width="2.0" stroke="black" fill="none"/>
        </g>
        <g latexdraw:type="circle" id="id1108820088">
            <circle cx="733.3333333333333" cy="106.66666666666669"
                r="65.66666666666669" latexdraw:borderPos="outer"
                stroke-width="2.0" stroke="black" fill="none"/>
        </g>
        <g latexdraw:type="dot" id="id144770184" latexdraw:size="5.0"
            latexdraw:dotShape="*" latexdraw:position="288.8888888888889 66.66666666666667">
            <path
                d="M 291.19658119658123 66.66666666666667 C 291.19658119658123 67.94116993550696 290.1633921577292 68.97435897435898 288.8888888888889 68.97435897435898 C 287.6143856200486 68.97435897435898 286.5811965811966 67.94116993550696 286.5811965811966 66.66666666666667 C 286.5811965811966 65.39216339782638 287.6143856200486 64.35897435897436 288.8888888888889 64.35897435897436 C 290.1633921577292 64.35897435897436 291.19658119658123 65.39216339782638 291.19658119658123 66.66666666666667 z "
                fill="black" stroke-linecap="square"
                stroke-linejoin="butt" stroke-width="0.3125"
                stroke-miterlimit="10.0" stroke-dashoffset="0.0" stroke="black"/>
        </g>
        <g latexdraw:type="dot" id="id631966968" latexdraw:size="5.0"
            latexdraw:dotShape="*" latexdraw:position="311.11111111111114 66.66666666666667">
            <path
                d="M 313.41880341880346 66.66666666666667 C 313.41880341880346 67.94116993550696 312.38561437995145 68.97435897435898 311.11111111111114 68.97435897435898 C 309.83660784227084 68.97435897435898 308.8034188034188 67.94116993550696 308.8034188034188 66.66666666666667 C 308.8034188034188 65.39216339782638 309.83660784227084 64.35897435897436 311.11111111111114 64.35897435897436 C 312.38561437995145 64.35897435897436 313.41880341880346 65.39216339782638 313.41880341880346 66.66666666666667 z "
                fill="black" stroke-linecap="square"
                stroke-linejoin="butt" stroke-width="0.3125"
                stroke-miterlimit="10.0" stroke-dashoffset="0.0" stroke="black"/>
        </g>
        <g latexdraw:type="dot" id="id2002664690" latexdraw:size="5.0"
            latexdraw:dotShape="*" latexdraw:position="288.8888888888889 44.44444444444445">
            <path
                d="M 291.19658119658123 44.44444444444445 C 291.19658119658123 45.71894771328474 290.1633921577292 46.75213675213676 288.8888888888889 46.75213675213676 C 287.6143856200486 46.75213675213676 286.5811965811966 45.71894771328474 286.5811965811966 44.44444444444445 C 286.5811965811966 43.16994117560416 287.6143856200486 42.13675213675214 288.8888888888889 42.13675213675214 C 290.1633921577292 42.13675213675214 291.19658119658123 43.16994117560416 291.19658119658123 44.44444444444445 z "
                fill="black" stroke-linecap="square"
                stroke-linejoin="butt" stroke-width="0.3125"
                stroke-miterlimit="10.0" stroke-dashoffset="0.0" stroke="black"/>
        </g>
        <g latexdraw:type="dot" id="id931881245" latexdraw:size="5.0"
            latexdraw:dotShape="*" latexdraw:position="266.6666666666667 66.66666666666667">
            <path
                d="M 268.974358974359 66.66666666666667 C 268.974358974359 67.94116993550696 267.941169935507 68.97435897435898 266.6666666666667 68.97435897435898 C 265.3921633978264 68.97435897435898 264.35897435897436 67.94116993550696 264.35897435897436 66.66666666666667 C 264.35897435897436 65.39216339782638 265.3921633978264 64.35897435897436 266.6666666666667 64.35897435897436 C 267.941169935507 64.35897435897436 268.974358974359 65.39216339782638 268.974358974359 66.66666666666667 z "
                fill="black" stroke-linecap="square"
                stroke-linejoin="butt" stroke-width="0.3125"
                stroke-miterlimit="10.0" stroke-dashoffset="0.0" stroke="black"/>
        </g>
        <g latexdraw:type="dot" id="id1825965966" latexdraw:size="5.0"
            latexdraw:dotShape="*" latexdraw:position="244.44444444444446 88.8888888888889">
            <path
                d="M 246.75213675213675 88.8888888888889 C 246.75213675213675 90.16339215772919 245.71894771328473 91.1965811965812 244.44444444444446 91.1965811965812 C 243.16994117560415 91.1965811965812 242.13675213675214 90.16339215772919 242.13675213675214 88.8888888888889 C 242.13675213675214 87.61438562004861 243.16994117560415 86.5811965811966 244.44444444444446 86.5811965811966 C 245.71894771328473 86.5811965811966 246.75213675213675 87.61438562004861 246.75213675213675 88.8888888888889 z "
                fill="black" stroke-linecap="square"
                stroke-linejoin="butt" stroke-width="0.3125"
                stroke-miterlimit="10.0" stroke-dashoffset="0.0" stroke="black"/>
        </g>
        <g latexdraw:type="dot" id="id304254522" latexdraw:size="5.0"
            latexdraw:dotShape="*" latexdraw:position="266.6666666666667 88.8888888888889">
            <path
                d="M 268.974358974359 88.8888888888889 C 268.974358974359 90.16339215772919 267.941169935507 91.1965811965812 266.6666666666667 91.1965811965812 C 265.3921633978264 91.1965811965812 264.35897435897436 90.16339215772919 264.35897435897436 88.8888888888889 C 264.35897435897436 87.61438562004861 265.3921633978264 86.5811965811966 266.6666666666667 86.5811965811966 C 267.941169935507 86.5811965811966 268.974358974359 87.61438562004861 268.974358974359 88.8888888888889 z "
                fill="black" stroke-linecap="square"
                stroke-linejoin="butt" stroke-width="0.3125"
                stroke-miterlimit="10.0" stroke-dashoffset="0.0" stroke="black"/>
        </g>
        <g latexdraw:type="dot" id="id101531192" latexdraw:size="5.0"
            latexdraw:dotShape="*" latexdraw:position="311.11111111111114 66.66666666666667">
            <path
                d="M 313.41880341880346 66.66666666666667 C 313.41880341880346 67.94116993550696 312.38561437995145 68.97435897435898 311.11111111111114 68.97435897435898 C 309.83660784227084 68.97435897435898 308.8034188034188 67.94116993550696 308.8034188034188 66.66666666666667 C 308.8034188034188 65.39216339782638 309.83660784227084 64.35897435897436 311.11111111111114 64.35897435897436 C 312.38561437995145 64.35897435897436 313.41880341880346 65.39216339782638 313.41880341880346 66.66666666666667 z "
                fill="black" stroke-linecap="square"
                stroke-linejoin="butt" stroke-width="0.3125"
                stroke-miterlimit="10.0" stroke-dashoffset="0.0" stroke="black"/>
        </g>
        <g latexdraw:type="dot" id="id1518702010" latexdraw:size="5.0"
            latexdraw:dotShape="*" latexdraw:position="288.8888888888889 66.66666666666667">
            <path
                d="M 291.19658119658123 66.66666666666667 C 291.19658119658123 67.94116993550696 290.1633921577292 68.97435897435898 288.8888888888889 68.97435897435898 C 287.6143856200486 68.97435897435898 286.5811965811966 67.94116993550696 286.5811965811966 66.66666666666667 C 286.5811965811966 65.39216339782638 287.6143856200486 64.35897435897436 288.8888888888889 64.35897435897436 C 290.1633921577292 64.35897435897436 291.19658119658123 65.39216339782638 291.19658119658123 66.66666666666667 z "
                fill="black" stroke-linecap="square"
                stroke-linejoin="butt" stroke-width="0.3125"
                stroke-miterlimit="10.0" stroke-dashoffset="0.0" stroke="black"/>
        </g>
        <g latexdraw:type="dot" id="id846100509" latexdraw:size="5.0"
            latexdraw:dotShape="*" latexdraw:position="311.11111111111114 88.8888888888889">
            <path
                d="M 313.41880341880346 88.8888888888889 C 313.41880341880346 90.16339215772919 312.38561437995145 91.1965811965812 311.11111111111114 91.1965811965812 C 309.83660784227084 91.1965811965812 308.8034188034188 90.16339215772919 308.8034188034188 88.8888888888889 C 308.8034188034188 87.61438562004861 309.83660784227084 86.5811965811966 311.11111111111114 86.5811965811966 C 312.38561437995145 86.5811965811966 313.41880341880346 87.61438562004861 313.41880341880346 88.8888888888889 z "
                fill="black" stroke-linecap="square"
                stroke-linejoin="butt" stroke-width="0.3125"
                stroke-miterlimit="10.0" stroke-dashoffset="0.0" stroke="black"/>
        </g>
        <g latexdraw:type="dot" id="id480442143" latexdraw:size="5.0"
            latexdraw:dotShape="*" latexdraw:position="288.8888888888889 88.8888888888889">
            <path
                d="M 291.19658119658123 88.8888888888889 C 291.19658119658123 90.16339215772919 290.1633921577292 91.1965811965812 288.8888888888889 91.1965811965812 C 287.6143856200486 91.1965811965812 286.5811965811966 90.16339215772919 286.5811965811966 88.8888888888889 C 286.5811965811966 87.61438562004861 287.6143856200486 86.5811965811966 288.8888888888889 86.5811965811966 C 290.1633921577292 86.5811965811966 291.19658119658123 87.61438562004861 291.19658119658123 88.8888888888889 z "
                fill="black" stroke-linecap="square"
                stroke-linejoin="butt" stroke-width="0.3125"
                stroke-miterlimit="10.0" stroke-dashoffset="0.0" stroke="black"/>
        </g>
        <g latexdraw:type="dot" id="id1796044911" latexdraw:size="5.0"
            latexdraw:dotShape="*" latexdraw:position="333.33333333333337 88.8888888888889">
            <path
                d="M 335.6410256410257 88.8888888888889 C 335.6410256410257 90.16339215772919 334.6078366021737 91.1965811965812 333.33333333333337 91.1965811965812 C 332.05883006449307 91.1965811965812 331.02564102564105 90.16339215772919 331.02564102564105 88.8888888888889 C 331.02564102564105 87.61438562004861 332.05883006449307 86.5811965811966 333.33333333333337 86.5811965811966 C 334.6078366021737 86.5811965811966 335.6410256410257 87.61438562004861 335.6410256410257 88.8888888888889 z "
                fill="black" stroke-linecap="square"
                stroke-linejoin="butt" stroke-width="0.3125"
                stroke-miterlimit="10.0" stroke-dashoffset="0.0" stroke="black"/>
        </g>
        <g latexdraw:type="dot" id="id1758825070" latexdraw:size="5.0"
            latexdraw:dotShape="*" latexdraw:position="333.33333333333337 66.66666666666667">
            <path
                d="M 335.6410256410257 66.66666666666667 C 335.6410256410257 67.94116993550696 334.6078366021737 68.97435897435898 333.33333333333337 68.97435897435898 C 332.05883006449307 68.97435897435898 331.02564102564105 67.94116993550696 331.02564102564105 66.66666666666667 C 331.02564102564105 65.39216339782638 332.05883006449307 64.35897435897436 333.33333333333337 64.35897435897436 C 334.6078366021737 64.35897435897436 335.6410256410257 65.39216339782638 335.6410256410257 66.66666666666667 z "
                fill="black" stroke-linecap="square"
                stroke-linejoin="butt" stroke-width="0.3125"
                stroke-miterlimit="10.0" stroke-dashoffset="0.0" stroke="black"/>
        </g>
        <g latexdraw:type="dot" id="id1356599188" latexdraw:size="5.0"
            latexdraw:dotShape="*" latexdraw:position="244.44444444444446 111.11111111111113">
            <path
                d="M 246.75213675213675 111.11111111111113 C 246.75213675213675 112.38561437995142 245.71894771328473 113.41880341880344 244.44444444444446 113.41880341880344 C 243.16994117560415 113.41880341880344 242.13675213675214 112.38561437995142 242.13675213675214 111.11111111111113 C 242.13675213675214 109.83660784227084 243.16994117560415 108.80341880341882 244.44444444444446 108.80341880341882 C 245.71894771328473 108.80341880341882 246.75213675213675 109.83660784227084 246.75213675213675 111.11111111111113 z "
                fill="black" stroke-linecap="square"
                stroke-linejoin="butt" stroke-width="0.3125"
                stroke-miterlimit="10.0" stroke-dashoffset="0.0" stroke="black"/>
        </g>
        <g latexdraw:type="dot" id="id1401259078" latexdraw:size="5.0"
            latexdraw:dotShape="*" latexdraw:position="244.44444444444446 111.11111111111113">
            <path
                d="M 246.75213675213675 111.11111111111113 C 246.75213675213675 112.38561437995142 245.71894771328473 113.41880341880344 244.44444444444446 113.41880341880344 C 243.16994117560415 113.41880341880344 242.13675213675214 112.38561437995142 242.13675213675214 111.11111111111113 C 242.13675213675214 109.83660784227084 243.16994117560415 108.80341880341882 244.44444444444446 108.80341880341882 C 245.71894771328473 108.80341880341882 246.75213675213675 109.83660784227084 246.75213675213675 111.11111111111113 z "
                fill="black" stroke-linecap="square"
                stroke-linejoin="butt" stroke-width="0.3125"
                stroke-miterlimit="10.0" stroke-dashoffset="0.0" stroke="black"/>
        </g>
        <g latexdraw:type="dot" id="id622779862" latexdraw:size="5.0"
            latexdraw:dotShape="*" latexdraw:position="288.8888888888889 111.11111111111113">
            <path
                d="M 291.19658119658123 111.11111111111113 C 291.19658119658123 112.38561437995142 290.1633921577292 113.41880341880344 288.8888888888889 113.41880341880344 C 287.6143856200486 113.41880341880344 286.5811965811966 112.38561437995142 286.5811965811966 111.11111111111113 C 286.5811965811966 109.83660784227084 287.6143856200486 108.80341880341882 288.8888888888889 108.80341880341882 C 290.1633921577292 108.80341880341882 291.19658119658123 109.83660784227084 291.19658119658123 111.11111111111113 z "
                fill="black" stroke-linecap="square"
                stroke-linejoin="butt" stroke-width="0.3125"
                stroke-miterlimit="10.0" stroke-dashoffset="0.0" stroke="black"/>
        </g>
        <g latexdraw:type="dot" id="id1928918963" latexdraw:size="5.0"
            latexdraw:dotShape="*" latexdraw:position="266.6666666666667 111.11111111111113">
            <path
                d="M 268.974358974359 111.11111111111113 C 268.974358974359 112.38561437995142 267.941169935507 113.41880341880344 266.6666666666667 113.41880341880344 C 265.3921633978264 113.41880341880344 264.35897435897436 112.38561437995142 264.35897435897436 111.11111111111113 C 264.35897435897436 109.83660784227084 265.3921633978264 108.80341880341882 266.6666666666667 108.80341880341882 C 267.941169935507 108.80341880341882 268.974358974359 109.83660784227084 268.974358974359 111.11111111111113 z "
                fill="black" stroke-linecap="square"
                stroke-linejoin="butt" stroke-width="0.3125"
                stroke-miterlimit="10.0" stroke-dashoffset="0.0" stroke="black"/>
        </g>
        <g latexdraw:type="dot" id="id1110759961" latexdraw:size="5.0"
            latexdraw:dotShape="*" latexdraw:position="311.11111111111114 111.11111111111113">
            <path
                d="M 313.41880341880346 111.11111111111113 C 313.41880341880346 112.38561437995142 312.38561437995145 113.41880341880344 311.11111111111114 113.41880341880344 C 309.83660784227084 113.41880341880344 308.8034188034188 112.38561437995142 308.8034188034188 111.11111111111113 C 308.8034188034188 109.83660784227084 309.83660784227084 108.80341880341882 311.11111111111114 108.80341880341882 C 312.38561437995145 108.80341880341882 313.41880341880346 109.83660784227084 313.41880341880346 111.11111111111113 z "
                fill="black" stroke-linecap="square"
                stroke-linejoin="butt" stroke-width="0.3125"
                stroke-miterlimit="10.0" stroke-dashoffset="0.0" stroke="black"/>
        </g>
        <g latexdraw:type="dot" id="id2109813677" latexdraw:size="5.0"
            latexdraw:dotShape="*" latexdraw:position="333.33333333333337 111.11111111111113">
            <path
                d="M 335.6410256410257 111.11111111111113 C 335.6410256410257 112.38561437995142 334.6078366021737 113.41880341880344 333.33333333333337 113.41880341880344 C 332.05883006449307 113.41880341880344 331.02564102564105 112.38561437995142 331.02564102564105 111.11111111111113 C 331.02564102564105 109.83660784227084 332.05883006449307 108.80341880341882 333.33333333333337 108.80341880341882 C 334.6078366021737 108.80341880341882 335.6410256410257 109.83660784227084 335.6410256410257 111.11111111111113 z "
                fill="black" stroke-linecap="square"
                stroke-linejoin="butt" stroke-width="0.3125"
                stroke-miterlimit="10.0" stroke-dashoffset="0.0" stroke="black"/>
        </g>
        <g latexdraw:type="dot" id="id844181121" latexdraw:size="5.0"
            latexdraw:dotShape="*" latexdraw:position="333.33333333333337 133.33333333333334">
            <path
                d="M 335.6410256410257 133.33333333333334 C 335.6410256410257 134.60783660217362 334.6078366021737 135.64102564102564 333.33333333333337 135.64102564102564 C 332.05883006449307 135.64102564102564 331.02564102564105 134.60783660217362 331.02564102564105 133.33333333333334 C 331.02564102564105 132.05883006449304 332.05883006449307 131.02564102564102 333.33333333333337 131.02564102564102 C 334.6078366021737 131.02564102564102 335.6410256410257 132.05883006449304 335.6410256410257 133.33333333333334 z "
                fill="black" stroke-linecap="square"
                stroke-linejoin="butt" stroke-width="0.3125"
                stroke-miterlimit="10.0" stroke-dashoffset="0.0" stroke="black"/>
        </g>
        <g latexdraw:type="dot" id="id1365201856" latexdraw:size="5.0"
            latexdraw:dotShape="*" latexdraw:position="311.11111111111114 133.33333333333334">
            <path
                d="M 313.41880341880346 133.33333333333334 C 313.41880341880346 134.60783660217362 312.38561437995145 135.64102564102564 311.11111111111114 135.64102564102564 C 309.83660784227084 135.64102564102564 308.8034188034188 134.60783660217362 308.8034188034188 133.33333333333334 C 308.8034188034188 132.05883006449304 309.83660784227084 131.02564102564102 311.11111111111114 131.02564102564102 C 312.38561437995145 131.02564102564102 313.41880341880346 132.05883006449304 313.41880341880346 133.33333333333334 z "
                fill="black" stroke-linecap="square"
                stroke-linejoin="butt" stroke-width="0.3125"
                stroke-miterlimit="10.0" stroke-dashoffset="0.0" stroke="black"/>
        </g>
        <g latexdraw:type="dot" id="id441038182" latexdraw:size="5.0"
            latexdraw:dotShape="*" latexdraw:position="288.8888888888889 133.33333333333334">
            <path
                d="M 291.19658119658123 133.33333333333334 C 291.19658119658123 134.60783660217362 290.1633921577292 135.64102564102564 288.8888888888889 135.64102564102564 C 287.6143856200486 135.64102564102564 286.5811965811966 134.60783660217362 286.5811965811966 133.33333333333334 C 286.5811965811966 132.05883006449304 287.6143856200486 131.02564102564102 288.8888888888889 131.02564102564102 C 290.1633921577292 131.02564102564102 291.19658119658123 132.05883006449304 291.19658119658123 133.33333333333334 z "
                fill="black" stroke-linecap="square"
                stroke-linejoin="butt" stroke-width="0.3125"
                stroke-miterlimit="10.0" stroke-dashoffset="0.0" stroke="black"/>
        </g>
        <g latexdraw:type="dot" id="id722647219" latexdraw:size="5.0"
            latexdraw:dotShape="*" latexdraw:position="288.8888888888889 133.33333333333334">
            <path
                d="M 291.19658119658123 133.33333333333334 C 291.19658119658123 134.60783660217362 290.1633921577292 135.64102564102564 288.8888888888889 135.64102564102564 C 287.6143856200486 135.64102564102564 286.5811965811966 134.60783660217362 286.5811965811966 133.33333333333334 C 286.5811965811966 132.05883006449304 287.6143856200486 131.02564102564102 288.8888888888889 131.02564102564102 C 290.1633921577292 131.02564102564102 291.19658119658123 132.05883006449304 291.19658119658123 133.33333333333334 z "
                fill="black" stroke-linecap="square"
                stroke-linejoin="butt" stroke-width="0.3125"
                stroke-miterlimit="10.0" stroke-dashoffset="0.0" stroke="black"/>
        </g>
        <g latexdraw:type="dot" id="id1318499058" latexdraw:size="5.0"
            latexdraw:dotShape="*" latexdraw:position="266.6666666666667 133.33333333333334">
            <path
                d="M 268.974358974359 133.33333333333334 C 268.974358974359 134.60783660217362 267.941169935507 135.64102564102564 266.6666666666667 135.64102564102564 C 265.3921633978264 135.64102564102564 264.35897435897436 134.60783660217362 264.35897435897436 133.33333333333334 C 264.35897435897436 132.05883006449304 265.3921633978264 131.02564102564102 266.6666666666667 131.02564102564102 C 267.941169935507 131.02564102564102 268.974358974359 132.05883006449304 268.974358974359 133.33333333333334 z "
                fill="black" stroke-linecap="square"
                stroke-linejoin="butt" stroke-width="0.3125"
                stroke-miterlimit="10.0" stroke-dashoffset="0.0" stroke="black"/>
        </g>
        <g latexdraw:type="dot" id="id823633457" latexdraw:size="5.0"
            latexdraw:dotShape="*" latexdraw:position="244.44444444444446 133.33333333333334">
            <path
                d="M 246.75213675213675 133.33333333333334 C 246.75213675213675 134.60783660217362 245.71894771328473 135.64102564102564 244.44444444444446 135.64102564102564 C 243.16994117560415 135.64102564102564 242.13675213675214 134.60783660217362 242.13675213675214 133.33333333333334 C 242.13675213675214 132.05883006449304 243.16994117560415 131.02564102564102 244.44444444444446 131.02564102564102 C 245.71894771328473 131.02564102564102 246.75213675213675 132.05883006449304 246.75213675213675 133.33333333333334 z "
                fill="black" stroke-linecap="square"
                stroke-linejoin="butt" stroke-width="0.3125"
                stroke-miterlimit="10.0" stroke-dashoffset="0.0" stroke="black"/>
        </g>
        <g latexdraw:type="dot" id="id1299736920" latexdraw:size="5.0"
            latexdraw:dotShape="*" latexdraw:position="266.6666666666667 155.55555555555557">
            <path
                d="M 268.974358974359 155.55555555555557 C 268.974358974359 156.83005882439585 267.941169935507 157.86324786324786 266.6666666666667 157.86324786324786 C 265.3921633978264 157.86324786324786 264.35897435897436 156.83005882439585 264.35897435897436 155.55555555555557 C 264.35897435897436 154.28105228671527 265.3921633978264 153.24786324786325 266.6666666666667 153.24786324786325 C 267.941169935507 153.24786324786325 268.974358974359 154.28105228671527 268.974358974359 155.55555555555557 z "
                fill="black" stroke-linecap="square"
                stroke-linejoin="butt" stroke-width="0.3125"
                stroke-miterlimit="10.0" stroke-dashoffset="0.0" stroke="black"/>
        </g>
        <g latexdraw:type="dot" id="id1012120210" latexdraw:size="5.0"
            latexdraw:dotShape="*" latexdraw:position="288.8888888888889 155.55555555555557">
            <path
                d="M 291.19658119658123 155.55555555555557 C 291.19658119658123 156.83005882439585 290.1633921577292 157.86324786324786 288.8888888888889 157.86324786324786 C 287.6143856200486 157.86324786324786 286.5811965811966 156.83005882439585 286.5811965811966 155.55555555555557 C 286.5811965811966 154.28105228671527 287.6143856200486 153.24786324786325 288.8888888888889 153.24786324786325 C 290.1633921577292 153.24786324786325 291.19658119658123 154.28105228671527 291.19658119658123 155.55555555555557 z "
                fill="black" stroke-linecap="square"
                stroke-linejoin="butt" stroke-width="0.3125"
                stroke-miterlimit="10.0" stroke-dashoffset="0.0" stroke="black"/>
        </g>
        <g latexdraw:type="dot" id="id371968319" latexdraw:size="5.0"
            latexdraw:dotShape="*" latexdraw:position="311.11111111111114 155.55555555555557">
            <path
                d="M 313.41880341880346 155.55555555555557 C 313.41880341880346 156.83005882439585 312.38561437995145 157.86324786324786 311.11111111111114 157.86324786324786 C 309.83660784227084 157.86324786324786 308.8034188034188 156.83005882439585 308.8034188034188 155.55555555555557 C 308.8034188034188 154.28105228671527 309.83660784227084 153.24786324786325 311.11111111111114 153.24786324786325 C 312.38561437995145 153.24786324786325 313.41880341880346 154.28105228671527 313.41880341880346 155.55555555555557 z "
                fill="black" stroke-linecap="square"
                stroke-linejoin="butt" stroke-width="0.3125"
                stroke-miterlimit="10.0" stroke-dashoffset="0.0" stroke="black"/>
        </g>
        <g latexdraw:type="dot" id="id1252885013" latexdraw:size="5.0"
            latexdraw:dotShape="*" latexdraw:position="311.11111111111114 155.55555555555557">
            <path
                d="M 313.41880341880346 155.55555555555557 C 313.41880341880346 156.83005882439585 312.38561437995145 157.86324786324786 311.11111111111114 157.86324786324786 C 309.83660784227084 157.86324786324786 308.8034188034188 156.83005882439585 308.8034188034188 155.55555555555557 C 308.8034188034188 154.28105228671527 309.83660784227084 153.24786324786325 311.11111111111114 153.24786324786325 C 312.38561437995145 153.24786324786325 313.41880341880346 154.28105228671527 313.41880341880346 155.55555555555557 z "
                fill="black" stroke-linecap="square"
                stroke-linejoin="butt" stroke-width="0.3125"
                stroke-miterlimit="10.0" stroke-dashoffset="0.0" stroke="black"/>
        </g>
        <g latexdraw:type="dot" id="id549219617" latexdraw:size="5.0"
            latexdraw:dotShape="*" latexdraw:position="333.33333333333337 155.55555555555557">
            <path
                d="M 335.6410256410257 155.55555555555557 C 335.6410256410257 156.83005882439585 334.6078366021737 157.86324786324786 333.33333333333337 157.86324786324786 C 332.05883006449307 157.86324786324786 331.02564102564105 156.83005882439585 331.02564102564105 155.55555555555557 C 331.02564102564105 154.28105228671527 332.05883006449307 153.24786324786325 333.33333333333337 153.24786324786325 C 334.6078366021737 153.24786324786325 335.6410256410257 154.28105228671527 335.6410256410257 155.55555555555557 z "
                fill="black" stroke-linecap="square"
                stroke-linejoin="butt" stroke-width="0.3125"
                stroke-miterlimit="10.0" stroke-dashoffset="0.0" stroke="black"/>
        </g>
        <g latexdraw:type="dot" id="id881337285" latexdraw:size="5.0"
            latexdraw:dotShape="x" latexdraw:position="733.3333333333334 66.66666666666667">
            <path
                d="M 731.3333333333334 64.66666666666667 L 735.3333333333334 68.66666666666667 M 735.3333333333334 64.66666666666667 L 731.3333333333334 68.66666666666667 "
                stroke-linecap="square" stroke-linejoin="butt"
                stroke-width="0.5" stroke-miterlimit="10.0"
                stroke-dashoffset="0.0" stroke="black"/>
        </g>
        <g latexdraw:type="dot" id="id1417806008" latexdraw:size="5.0"
            latexdraw:dotShape="x" latexdraw:position="733.3333333333334 44.44444444444445">
            <path
                d="M 731.3333333333334 42.44444444444445 L 735.3333333333334 46.44444444444445 M 735.3333333333334 42.44444444444445 L 731.3333333333334 46.44444444444445 "
                stroke-linecap="square" stroke-linejoin="butt"
                stroke-width="0.5" stroke-miterlimit="10.0"
                stroke-dashoffset="0.0" stroke="black"/>
        </g>
        <g latexdraw:type="dot" id="id929777104" latexdraw:size="5.0"
            latexdraw:dotShape="*" latexdraw:position="311.11111111111114 44.44444444444445">
            <path
                d="M 313.41880341880346 44.44444444444445 C 313.41880341880346 45.71894771328474 312.38561437995145 46.75213675213676 311.11111111111114 46.75213675213676 C 309.83660784227084 46.75213675213676 308.8034188034188 45.71894771328474 308.8034188034188 44.44444444444445 C 308.8034188034188 43.16994117560416 309.83660784227084 42.13675213675214 311.11111111111114 42.13675213675214 C 312.38561437995145 42.13675213675214 313.41880341880346 43.16994117560416 313.41880341880346 44.44444444444445 z "
                fill="black" stroke-linecap="square"
                stroke-linejoin="butt" stroke-width="0.3125"
                stroke-miterlimit="10.0" stroke-dashoffset="0.0" stroke="black"/>
        </g>
        <g latexdraw:type="dot" id="id1774335589" latexdraw:size="5.0"
            latexdraw:dotShape="*" latexdraw:position="311.11111111111114 44.44444444444445">
            <path
                d="M 313.41880341880346 44.44444444444445 C 313.41880341880346 45.71894771328474 312.38561437995145 46.75213675213676 311.11111111111114 46.75213675213676 C 309.83660784227084 46.75213675213676 308.8034188034188 45.71894771328474 308.8034188034188 44.44444444444445 C 308.8034188034188 43.16994117560416 309.83660784227084 42.13675213675214 311.11111111111114 42.13675213675214 C 312.38561437995145 42.13675213675214 313.41880341880346 43.16994117560416 313.41880341880346 44.44444444444445 z "
                fill="black" stroke-linecap="square"
                stroke-linejoin="butt" stroke-width="0.3125"
                stroke-miterlimit="10.0" stroke-dashoffset="0.0" stroke="black"/>
        </g>
        <g latexdraw:type="dot" id="id1118326820" latexdraw:size="5.0"
            latexdraw:dotShape="x" latexdraw:position="711.1111111111112 66.66666666666667">
            <path
                d="M 709.1111111111112 64.66666666666667 L 713.1111111111112 68.66666666666667 M 713.1111111111112 64.66666666666667 L 709.1111111111112 68.66666666666667 "
                stroke-linecap="square" stroke-linejoin="butt"
                stroke-width="0.5" stroke-miterlimit="10.0"
                stroke-dashoffset="0.0" stroke="black"/>
        </g>
        <g latexdraw:type="dot" id="id341825288" latexdraw:size="5.0"
            latexdraw:dotShape="x" latexdraw:position="733.3333333333334 66.66666666666667">
            <path
                d="M 731.3333333333334 64.66666666666667 L 735.3333333333334 68.66666666666667 M 735.3333333333334 64.66666666666667 L 731.3333333333334 68.66666666666667 "
                stroke-linecap="square" stroke-linejoin="butt"
                stroke-width="0.5" stroke-miterlimit="10.0"
                stroke-dashoffset="0.0" stroke="black"/>
        </g>
        <g latexdraw:type="dot" id="id1030846560" latexdraw:size="5.0"
            latexdraw:dotShape="x" latexdraw:position="755.5555555555557 66.66666666666667">
            <path
                d="M 753.5555555555557 64.66666666666667 L 757.5555555555557 68.66666666666667 M 757.5555555555557 64.66666666666667 L 753.5555555555557 68.66666666666667 "
                stroke-linecap="square" stroke-linejoin="butt"
                stroke-width="0.5" stroke-miterlimit="10.0"
                stroke-dashoffset="0.0" stroke="black"/>
        </g>
        <g latexdraw:type="dot" id="id249304911" latexdraw:size="5.0"
            latexdraw:dotShape="x" latexdraw:position="777.7777777777778 66.66666666666667">
            <path
                d="M 775.7777777777778 64.66666666666667 L 779.7777777777778 68.66666666666667 M 779.7777777777778 64.66666666666667 L 775.7777777777778 68.66666666666667 "
                stroke-linecap="square" stroke-linejoin="butt"
                stroke-width="0.5" stroke-miterlimit="10.0"
                stroke-dashoffset="0.0" stroke="black"/>
        </g>
        <g latexdraw:type="dot" id="id1154019476" latexdraw:size="5.0"
            latexdraw:dotShape="x" latexdraw:position="688.8888888888889 66.66666666666667">
            <path
                d="M 686.8888888888889 64.66666666666667 L 690.8888888888889 68.66666666666667 M 690.8888888888889 64.66666666666667 L 686.8888888888889 68.66666666666667 "
                stroke-linecap="square" stroke-linejoin="butt"
                stroke-width="0.5" stroke-miterlimit="10.0"
                stroke-dashoffset="0.0" stroke="black"/>
        </g>
        <g latexdraw:type="dot" id="id1427291339" latexdraw:size="5.0"
            latexdraw:dotShape="x" latexdraw:position="688.8888888888889 88.8888888888889">
            <path
                d="M 686.8888888888889 86.8888888888889 L 690.8888888888889 90.8888888888889 M 690.8888888888889 86.8888888888889 L 686.8888888888889 90.8888888888889 "
                stroke-linecap="square" stroke-linejoin="butt"
                stroke-width="0.5" stroke-miterlimit="10.0"
                stroke-dashoffset="0.0" stroke="black"/>
        </g>
        <g latexdraw:type="dot" id="id2077653774" latexdraw:size="5.0"
            latexdraw:dotShape="x" latexdraw:position="688.8888888888889 88.8888888888889">
            <path
                d="M 686.8888888888889 86.8888888888889 L 690.8888888888889 90.8888888888889 M 690.8888888888889 86.8888888888889 L 686.8888888888889 90.8888888888889 "
                stroke-linecap="square" stroke-linejoin="butt"
                stroke-width="0.5" stroke-miterlimit="10.0"
                stroke-dashoffset="0.0" stroke="black"/>
        </g>
        <g latexdraw:type="dot" id="id5438873" latexdraw:size="5.0"
            latexdraw:dotShape="x" latexdraw:position="711.1111111111112 88.8888888888889">
            <path
                d="M 709.1111111111112 86.8888888888889 L 713.1111111111112 90.8888888888889 M 713.1111111111112 86.8888888888889 L 709.1111111111112 90.8888888888889 "
                stroke-linecap="square" stroke-linejoin="butt"
                stroke-width="0.5" stroke-miterlimit="10.0"
                stroke-dashoffset="0.0" stroke="black"/>
        </g>
        <g latexdraw:type="dot" id="id1999797192" latexdraw:size="5.0"
            latexdraw:dotShape="x" latexdraw:position="733.3333333333334 88.8888888888889">
            <path
                d="M 731.3333333333334 86.8888888888889 L 735.3333333333334 90.8888888888889 M 735.3333333333334 86.8888888888889 L 731.3333333333334 90.8888888888889 "
                stroke-linecap="square" stroke-linejoin="butt"
                stroke-width="0.5" stroke-miterlimit="10.0"
                stroke-dashoffset="0.0" stroke="black"/>
        </g>
        <g latexdraw:type="dot" id="id396853388" latexdraw:size="5.0"
            latexdraw:dotShape="x" latexdraw:position="733.3333333333334 88.8888888888889">
            <path
                d="M 731.3333333333334 86.8888888888889 L 735.3333333333334 90.8888888888889 M 735.3333333333334 86.8888888888889 L 731.3333333333334 90.8888888888889 "
                stroke-linecap="square" stroke-linejoin="butt"
                stroke-width="0.5" stroke-miterlimit="10.0"
                stroke-dashoffset="0.0" stroke="black"/>
        </g>
        <g latexdraw:type="dot" id="id1863194793" latexdraw:size="5.0"
            latexdraw:dotShape="x" latexdraw:position="755.5555555555557 88.8888888888889">
            <path
                d="M 753.5555555555557 86.8888888888889 L 757.5555555555557 90.8888888888889 M 757.5555555555557 86.8888888888889 L 753.5555555555557 90.8888888888889 "
                stroke-linecap="square" stroke-linejoin="butt"
                stroke-width="0.5" stroke-miterlimit="10.0"
                stroke-dashoffset="0.0" stroke="black"/>
        </g>
        <g latexdraw:type="dot" id="id874611059" latexdraw:size="5.0"
            latexdraw:dotShape="x" latexdraw:position="777.7777777777778 88.8888888888889">
            <path
                d="M 775.7777777777778 86.8888888888889 L 779.7777777777778 90.8888888888889 M 779.7777777777778 86.8888888888889 L 775.7777777777778 90.8888888888889 "
                stroke-linecap="square" stroke-linejoin="butt"
                stroke-width="0.5" stroke-miterlimit="10.0"
                stroke-dashoffset="0.0" stroke="black"/>
        </g>
        <g latexdraw:type="dot" id="id2136668856" latexdraw:size="5.0"
            latexdraw:dotShape="x" latexdraw:position="777.7777777777778 111.11111111111113">
            <path
                d="M 775.7777777777778 109.11111111111113 L 779.7777777777778 113.11111111111113 M 779.7777777777778 109.11111111111113 L 775.7777777777778 113.11111111111113 "
                stroke-linecap="square" stroke-linejoin="butt"
                stroke-width="0.5" stroke-miterlimit="10.0"
                stroke-dashoffset="0.0" stroke="black"/>
        </g>
        <g latexdraw:type="dot" id="id1147389967" latexdraw:size="5.0"
            latexdraw:dotShape="x" latexdraw:position="755.5555555555557 111.11111111111113">
            <path
                d="M 753.5555555555557 109.11111111111113 L 757.5555555555557 113.11111111111113 M 757.5555555555557 109.11111111111113 L 753.5555555555557 113.11111111111113 "
                stroke-linecap="square" stroke-linejoin="butt"
                stroke-width="0.5" stroke-miterlimit="10.0"
                stroke-dashoffset="0.0" stroke="black"/>
        </g>
        <g latexdraw:type="dot" id="id1828988167" latexdraw:size="5.0"
            latexdraw:dotShape="x" latexdraw:position="733.3333333333334 111.11111111111113">
            <path
                d="M 731.3333333333334 109.11111111111113 L 735.3333333333334 113.11111111111113 M 735.3333333333334 109.11111111111113 L 731.3333333333334 113.11111111111113 "
                stroke-linecap="square" stroke-linejoin="butt"
                stroke-width="0.5" stroke-miterlimit="10.0"
                stroke-dashoffset="0.0" stroke="black"/>
        </g>
        <g latexdraw:type="dot" id="id918441692" latexdraw:size="5.0"
            latexdraw:dotShape="x" latexdraw:position="711.1111111111112 111.11111111111113">
            <path
                d="M 709.1111111111112 109.11111111111113 L 713.1111111111112 113.11111111111113 M 713.1111111111112 109.11111111111113 L 709.1111111111112 113.11111111111113 "
                stroke-linecap="square" stroke-linejoin="butt"
                stroke-width="0.5" stroke-miterlimit="10.0"
                stroke-dashoffset="0.0" stroke="black"/>
        </g>
        <g latexdraw:type="dot" id="id602212032" latexdraw:size="5.0"
            latexdraw:dotShape="x" latexdraw:position="688.8888888888889 111.11111111111113">
            <path
                d="M 686.8888888888889 109.11111111111113 L 690.8888888888889 113.11111111111113 M 690.8888888888889 109.11111111111113 L 686.8888888888889 113.11111111111113 "
                stroke-linecap="square" stroke-linejoin="butt"
                stroke-width="0.5" stroke-miterlimit="10.0"
                stroke-dashoffset="0.0" stroke="black"/>
        </g>
        <g latexdraw:type="dot" id="id897294867" latexdraw:size="5.0"
            latexdraw:dotShape="x" latexdraw:position="688.8888888888889 111.11111111111113">
            <path
                d="M 686.8888888888889 109.11111111111113 L 690.8888888888889 113.11111111111113 M 690.8888888888889 109.11111111111113 L 686.8888888888889 113.11111111111113 "
                stroke-linecap="square" stroke-linejoin="butt"
                stroke-width="0.5" stroke-miterlimit="10.0"
                stroke-dashoffset="0.0" stroke="black"/>
        </g>
        <g latexdraw:type="dot" id="id1607999214" latexdraw:size="5.0"
            latexdraw:dotShape="x" latexdraw:position="688.8888888888889 133.33333333333334">
            <path
                d="M 686.8888888888889 131.33333333333334 L 690.8888888888889 135.33333333333334 M 690.8888888888889 131.33333333333334 L 686.8888888888889 135.33333333333334 "
                stroke-linecap="square" stroke-linejoin="butt"
                stroke-width="0.5" stroke-miterlimit="10.0"
                stroke-dashoffset="0.0" stroke="black"/>
        </g>
        <g latexdraw:type="dot" id="id311467942" latexdraw:size="5.0"
            latexdraw:dotShape="x" latexdraw:position="711.1111111111112 133.33333333333334">
            <path
                d="M 709.1111111111112 131.33333333333334 L 713.1111111111112 135.33333333333334 M 713.1111111111112 131.33333333333334 L 709.1111111111112 135.33333333333334 "
                stroke-linecap="square" stroke-linejoin="butt"
                stroke-width="0.5" stroke-miterlimit="10.0"
                stroke-dashoffset="0.0" stroke="black"/>
        </g>
        <g latexdraw:type="dot" id="id1625258124" latexdraw:size="5.0"
            latexdraw:dotShape="x" latexdraw:position="755.5555555555557 133.33333333333334">
            <path
                d="M 753.5555555555557 131.33333333333334 L 757.5555555555557 135.33333333333334 M 757.5555555555557 131.33333333333334 L 753.5555555555557 135.33333333333334 "
                stroke-linecap="square" stroke-linejoin="butt"
                stroke-width="0.5" stroke-miterlimit="10.0"
                stroke-dashoffset="0.0" stroke="black"/>
        </g>
        <g latexdraw:type="dot" id="id2021339908" latexdraw:size="5.0"
            latexdraw:dotShape="x" latexdraw:position="733.3333333333334 133.33333333333334">
            <path
                d="M 731.3333333333334 131.33333333333334 L 735.3333333333334 135.33333333333334 M 735.3333333333334 131.33333333333334 L 731.3333333333334 135.33333333333334 "
                stroke-linecap="square" stroke-linejoin="butt"
                stroke-width="0.5" stroke-miterlimit="10.0"
                stroke-dashoffset="0.0" stroke="black"/>
        </g>
        <g latexdraw:type="dot" id="id1705367188" latexdraw:size="5.0"
            latexdraw:dotShape="x" latexdraw:position="777.7777777777778 133.33333333333334">
            <path
                d="M 775.7777777777778 131.33333333333334 L 779.7777777777778 135.33333333333334 M 779.7777777777778 131.33333333333334 L 775.7777777777778 135.33333333333334 "
                stroke-linecap="square" stroke-linejoin="butt"
                stroke-width="0.5" stroke-miterlimit="10.0"
                stroke-dashoffset="0.0" stroke="black"/>
        </g>
        <g latexdraw:type="dot" id="id770234747" latexdraw:size="5.0"
            latexdraw:dotShape="x" latexdraw:position="711.1111111111112 155.55555555555557">
            <path
                d="M 709.1111111111112 153.55555555555557 L 713.1111111111112 157.55555555555557 M 713.1111111111112 153.55555555555557 L 709.1111111111112 157.55555555555557 "
                stroke-linecap="square" stroke-linejoin="butt"
                stroke-width="0.5" stroke-miterlimit="10.0"
                stroke-dashoffset="0.0" stroke="black"/>
        </g>
        <g latexdraw:type="dot" id="id915520819" latexdraw:size="5.0"
            latexdraw:dotShape="x" latexdraw:position="733.3333333333334 155.55555555555557">
            <path
                d="M 731.3333333333334 153.55555555555557 L 735.3333333333334 157.55555555555557 M 735.3333333333334 153.55555555555557 L 731.3333333333334 157.55555555555557 "
                stroke-linecap="square" stroke-linejoin="butt"
                stroke-width="0.5" stroke-miterlimit="10.0"
                stroke-dashoffset="0.0" stroke="black"/>
        </g>
        <g latexdraw:type="dot" id="id6887926" latexdraw:size="5.0"
            latexdraw:dotShape="x" latexdraw:position="755.5555555555557 155.55555555555557">
            <path
                d="M 753.5555555555557 153.55555555555557 L 757.5555555555557 157.55555555555557 M 757.5555555555557 153.55555555555557 L 753.5555555555557 157.55555555555557 "
                stroke-linecap="square" stroke-linejoin="butt"
                stroke-width="0.5" stroke-miterlimit="10.0"
                stroke-dashoffset="0.0" stroke="black"/>
        </g>
    </g>
    <defs/>
    <metadata>
        <latexdraw:metadata>
            <latexdraw:latexIncludes/>
            <latexdraw:displayXScale>true</latexdraw:displayXScale>
            <latexdraw:displayYScale>true</latexdraw:displayYScale>
            <latexdraw:unit>CM</latexdraw:unit>
            <latexdraw:zoom>0.8999999999999999</latexdraw:zoom>
            <latexdraw:magneticGridStyle>CUSTOMISED</latexdraw:magneticGridStyle>
            <latexdraw:gridGap>20</latexdraw:gridGap>
            <latexdraw:magneticGrid>true</latexdraw:magneticGrid>
            <latexdraw:version>3.3.6</latexdraw:version>
            <latexdraw:size>
                <latexdraw:width>1936</latexdraw:width>
                <latexdraw:height>1056</latexdraw:height>
            </latexdraw:size>
            <latexdraw:position>
                <latexdraw:x>-8.0</latexdraw:x>
                <latexdraw:y>-8.0</latexdraw:y>
            </latexdraw:position>
        </latexdraw:metadata>
    </metadata>
</svg>
