<?xml version="1.1" encoding="windows-1252"?>
<svg xmlns="http://www.w3.org/2000/svg"
    xmlns:latexdraw="http://latexdraw.sourceforge.net/namespaces/latexdraw"
    version="1.1" baseProfile="full">
    <g>
        <g latexdraw:type="circle" id="id283032646">
            <circle cx="293.3333333333333" cy="106.6666666666667"
                r="65.66666666666669" latexdraw:borderPos="outer"
                stroke-width="2.0" stroke="black" fill="none"/>
        </g>
        <g latexdraw:type="circle" id="id38583402">
            <circle cx="733.3333333333333" cy="106.66666666666669"
                r="65.66666666666669" latexdraw:borderPos="outer"
                stroke-width="2.0" stroke="black" fill="none"/>
        </g>
        <g latexdraw:type="dot" id="id910063498" latexdraw:size="5.0"
            latexdraw:dotShape="*" latexdraw:position="288.8888888888889 66.66666666666667">
            <path
                d="M 291.19658119658123 66.66666666666667 C 291.19658119658123 67.94116993550696 290.1633921577292 68.97435897435898 288.8888888888889 68.97435897435898 C 287.6143856200486 68.97435897435898 286.5811965811966 67.94116993550696 286.5811965811966 66.66666666666667 C 286.5811965811966 65.39216339782638 287.6143856200486 64.35897435897436 288.8888888888889 64.35897435897436 C 290.1633921577292 64.35897435897436 291.19658119658123 65.39216339782638 291.19658119658123 66.66666666666667 z "
                fill="black" stroke-linecap="square"
                stroke-linejoin="butt" stroke-width="0.3125"
                stroke-miterlimit="10.0" stroke-dashoffset="0.0" stroke="black"/>
        </g>
        <g latexdraw:type="dot" id="id1666199430" latexdraw:size="5.0"
            latexdraw:dotShape="*" latexdraw:position="311.11111111111114 66.66666666666667">
            <path
                d="M 313.41880341880346 66.66666666666667 C 313.41880341880346 67.94116993550696 312.38561437995145 68.97435897435898 311.11111111111114 68.97435897435898 C 309.83660784227084 68.97435897435898 308.8034188034188 67.94116993550696 308.8034188034188 66.66666666666667 C 308.8034188034188 65.39216339782638 309.83660784227084 64.35897435897436 311.11111111111114 64.35897435897436 C 312.38561437995145 64.35897435897436 313.41880341880346 65.39216339782638 313.41880341880346 66.66666666666667 z "
                fill="black" stroke-linecap="square"
                stroke-linejoin="butt" stroke-width="0.3125"
                stroke-miterlimit="10.0" stroke-dashoffset="0.0" stroke="black"/>
        </g>
        <g latexdraw:type="dot" id="id945917466" latexdraw:size="5.0"
            latexdraw:dotShape="*" latexdraw:position="288.8888888888889 44.44444444444445">
            <path
                d="M 291.19658119658123 44.44444444444445 C 291.19658119658123 45.71894771328474 290.1633921577292 46.75213675213676 288.8888888888889 46.75213675213676 C 287.6143856200486 46.75213675213676 286.5811965811966 45.71894771328474 286.5811965811966 44.44444444444445 C 286.5811965811966 43.16994117560416 287.6143856200486 42.13675213675214 288.8888888888889 42.13675213675214 C 290.1633921577292 42.13675213675214 291.19658119658123 43.16994117560416 291.19658119658123 44.44444444444445 z "
                fill="black" stroke-linecap="square"
                stroke-linejoin="butt" stroke-width="0.3125"
                stroke-miterlimit="10.0" stroke-dashoffset="0.0" stroke="black"/>
        </g>
        <g latexdraw:type="dot" id="id177507032" latexdraw:size="5.0"
            latexdraw:dotShape="*" latexdraw:position="266.6666666666667 66.66666666666667">
            <path
                d="M 268.974358974359 66.66666666666667 C 268.974358974359 67.94116993550696 267.941169935507 68.97435897435898 266.6666666666667 68.97435897435898 C 265.3921633978264 68.97435897435898 264.35897435897436 67.94116993550696 264.35897435897436 66.66666666666667 C 264.35897435897436 65.39216339782638 265.3921633978264 64.35897435897436 266.6666666666667 64.35897435897436 C 267.941169935507 64.35897435897436 268.974358974359 65.39216339782638 268.974358974359 66.66666666666667 z "
                fill="black" stroke-linecap="square"
                stroke-linejoin="butt" stroke-width="0.3125"
                stroke-miterlimit="10.0" stroke-dashoffset="0.0" stroke="black"/>
        </g>
        <g latexdraw:type="dot" id="id429073836" latexdraw:size="5.0"
            latexdraw:dotShape="*" latexdraw:position="244.44444444444446 66.66666666666667">
            <path
                d="M 246.75213675213675 66.66666666666667 C 246.75213675213675 67.94116993550696 245.71894771328473 68.97435897435898 244.44444444444446 68.97435897435898 C 243.16994117560415 68.97435897435898 242.13675213675214 67.94116993550696 242.13675213675214 66.66666666666667 C 242.13675213675214 65.39216339782638 243.16994117560415 64.35897435897436 244.44444444444446 64.35897435897436 C 245.71894771328473 64.35897435897436 246.75213675213675 65.39216339782638 246.75213675213675 66.66666666666667 z "
                fill="black" stroke-linecap="square"
                stroke-linejoin="butt" stroke-width="0.3125"
                stroke-miterlimit="10.0" stroke-dashoffset="0.0" stroke="black"/>
        </g>
        <g latexdraw:type="dot" id="id124521076" latexdraw:size="5.0"
            latexdraw:dotShape="*" latexdraw:position="244.44444444444446 88.8888888888889">
            <path
                d="M 246.75213675213675 88.8888888888889 C 246.75213675213675 90.16339215772919 245.71894771328473 91.1965811965812 244.44444444444446 91.1965811965812 C 243.16994117560415 91.1965811965812 242.13675213675214 90.16339215772919 242.13675213675214 88.8888888888889 C 242.13675213675214 87.61438562004861 243.16994117560415 86.5811965811966 244.44444444444446 86.5811965811966 C 245.71894771328473 86.5811965811966 246.75213675213675 87.61438562004861 246.75213675213675 88.8888888888889 z "
                fill="black" stroke-linecap="square"
                stroke-linejoin="butt" stroke-width="0.3125"
                stroke-miterlimit="10.0" stroke-dashoffset="0.0" stroke="black"/>
        </g>
        <g latexdraw:type="dot" id="id1561591419" latexdraw:size="5.0"
            latexdraw:dotShape="*" latexdraw:position="266.6666666666667 88.8888888888889">
            <path
                d="M 268.974358974359 88.8888888888889 C 268.974358974359 90.16339215772919 267.941169935507 91.1965811965812 266.6666666666667 91.1965811965812 C 265.3921633978264 91.1965811965812 264.35897435897436 90.16339215772919 264.35897435897436 88.8888888888889 C 264.35897435897436 87.61438562004861 265.3921633978264 86.5811965811966 266.6666666666667 86.5811965811966 C 267.941169935507 86.5811965811966 268.974358974359 87.61438562004861 268.974358974359 88.8888888888889 z "
                fill="black" stroke-linecap="square"
                stroke-linejoin="butt" stroke-width="0.3125"
                stroke-miterlimit="10.0" stroke-dashoffset="0.0" stroke="black"/>
        </g>
        <g latexdraw:type="dot" id="id582029068" latexdraw:size="5.0"
            latexdraw:dotShape="*" latexdraw:position="311.11111111111114 66.66666666666667">
            <path
                d="M 313.41880341880346 66.66666666666667 C 313.41880341880346 67.94116993550696 312.38561437995145 68.97435897435898 311.11111111111114 68.97435897435898 C 309.83660784227084 68.97435897435898 308.8034188034188 67.94116993550696 308.8034188034188 66.66666666666667 C 308.8034188034188 65.39216339782638 309.83660784227084 64.35897435897436 311.11111111111114 64.35897435897436 C 312.38561437995145 64.35897435897436 313.41880341880346 65.39216339782638 313.41880341880346 66.66666666666667 z "
                fill="black" stroke-linecap="square"
                stroke-linejoin="butt" stroke-width="0.3125"
                stroke-miterlimit="10.0" stroke-dashoffset="0.0" stroke="black"/>
        </g>
        <g latexdraw:type="dot" id="id327518337" latexdraw:size="5.0"
            latexdraw:dotShape="*" latexdraw:position="288.8888888888889 66.66666666666667">
            <path
                d="M 291.19658119658123 66.66666666666667 C 291.19658119658123 67.94116993550696 290.1633921577292 68.97435897435898 288.8888888888889 68.97435897435898 C 287.6143856200486 68.97435897435898 286.5811965811966 67.94116993550696 286.5811965811966 66.66666666666667 C 286.5811965811966 65.39216339782638 287.6143856200486 64.35897435897436 288.8888888888889 64.35897435897436 C 290.1633921577292 64.35897435897436 291.19658119658123 65.39216339782638 291.19658119658123 66.66666666666667 z "
                fill="black" stroke-linecap="square"
                stroke-linejoin="butt" stroke-width="0.3125"
                stroke-miterlimit="10.0" stroke-dashoffset="0.0" stroke="black"/>
        </g>
        <g latexdraw:type="dot" id="id1775599813" latexdraw:size="5.0"
            latexdraw:dotShape="*" latexdraw:position="311.11111111111114 88.8888888888889">
            <path
                d="M 313.41880341880346 88.8888888888889 C 313.41880341880346 90.16339215772919 312.38561437995145 91.1965811965812 311.11111111111114 91.1965811965812 C 309.83660784227084 91.1965811965812 308.8034188034188 90.16339215772919 308.8034188034188 88.8888888888889 C 308.8034188034188 87.61438562004861 309.83660784227084 86.5811965811966 311.11111111111114 86.5811965811966 C 312.38561437995145 86.5811965811966 313.41880341880346 87.61438562004861 313.41880341880346 88.8888888888889 z "
                fill="black" stroke-linecap="square"
                stroke-linejoin="butt" stroke-width="0.3125"
                stroke-miterlimit="10.0" stroke-dashoffset="0.0" stroke="black"/>
        </g>
        <g latexdraw:type="dot" id="id674124006" latexdraw:size="5.0"
            latexdraw:dotShape="*" latexdraw:position="288.8888888888889 88.8888888888889">
            <path
                d="M 291.19658119658123 88.8888888888889 C 291.19658119658123 90.16339215772919 290.1633921577292 91.1965811965812 288.8888888888889 91.1965811965812 C 287.6143856200486 91.1965811965812 286.5811965811966 90.16339215772919 286.5811965811966 88.8888888888889 C 286.5811965811966 87.61438562004861 287.6143856200486 86.5811965811966 288.8888888888889 86.5811965811966 C 290.1633921577292 86.5811965811966 291.19658119658123 87.61438562004861 291.19658119658123 88.8888888888889 z "
                fill="black" stroke-linecap="square"
                stroke-linejoin="butt" stroke-width="0.3125"
                stroke-miterlimit="10.0" stroke-dashoffset="0.0" stroke="black"/>
        </g>
        <g latexdraw:type="dot" id="id529161139" latexdraw:size="5.0"
            latexdraw:dotShape="*" latexdraw:position="333.33333333333337 88.8888888888889">
            <path
                d="M 335.6410256410257 88.8888888888889 C 335.6410256410257 90.16339215772919 334.6078366021737 91.1965811965812 333.33333333333337 91.1965811965812 C 332.05883006449307 91.1965811965812 331.02564102564105 90.16339215772919 331.02564102564105 88.8888888888889 C 331.02564102564105 87.61438562004861 332.05883006449307 86.5811965811966 333.33333333333337 86.5811965811966 C 334.6078366021737 86.5811965811966 335.6410256410257 87.61438562004861 335.6410256410257 88.8888888888889 z "
                fill="black" stroke-linecap="square"
                stroke-linejoin="butt" stroke-width="0.3125"
                stroke-miterlimit="10.0" stroke-dashoffset="0.0" stroke="black"/>
        </g>
        <g latexdraw:type="dot" id="id1386623912" latexdraw:size="5.0"
            latexdraw:dotShape="*" latexdraw:position="333.33333333333337 66.66666666666667">
            <path
                d="M 335.6410256410257 66.66666666666667 C 335.6410256410257 67.94116993550696 334.6078366021737 68.97435897435898 333.33333333333337 68.97435897435898 C 332.05883006449307 68.97435897435898 331.02564102564105 67.94116993550696 331.02564102564105 66.66666666666667 C 331.02564102564105 65.39216339782638 332.05883006449307 64.35897435897436 333.33333333333337 64.35897435897436 C 334.6078366021737 64.35897435897436 335.6410256410257 65.39216339782638 335.6410256410257 66.66666666666667 z "
                fill="black" stroke-linecap="square"
                stroke-linejoin="butt" stroke-width="0.3125"
                stroke-miterlimit="10.0" stroke-dashoffset="0.0" stroke="black"/>
        </g>
        <g latexdraw:type="dot" id="id608646137" latexdraw:size="5.0"
            latexdraw:dotShape="*" latexdraw:position="244.44444444444446 111.11111111111113">
            <path
                d="M 246.75213675213675 111.11111111111113 C 246.75213675213675 112.38561437995142 245.71894771328473 113.41880341880344 244.44444444444446 113.41880341880344 C 243.16994117560415 113.41880341880344 242.13675213675214 112.38561437995142 242.13675213675214 111.11111111111113 C 242.13675213675214 109.83660784227084 243.16994117560415 108.80341880341882 244.44444444444446 108.80341880341882 C 245.71894771328473 108.80341880341882 246.75213675213675 109.83660784227084 246.75213675213675 111.11111111111113 z "
                fill="black" stroke-linecap="square"
                stroke-linejoin="butt" stroke-width="0.3125"
                stroke-miterlimit="10.0" stroke-dashoffset="0.0" stroke="black"/>
        </g>
        <g latexdraw:type="dot" id="id1622456488" latexdraw:size="5.0"
            latexdraw:dotShape="*" latexdraw:position="244.44444444444446 111.11111111111113">
            <path
                d="M 246.75213675213675 111.11111111111113 C 246.75213675213675 112.38561437995142 245.71894771328473 113.41880341880344 244.44444444444446 113.41880341880344 C 243.16994117560415 113.41880341880344 242.13675213675214 112.38561437995142 242.13675213675214 111.11111111111113 C 242.13675213675214 109.83660784227084 243.16994117560415 108.80341880341882 244.44444444444446 108.80341880341882 C 245.71894771328473 108.80341880341882 246.75213675213675 109.83660784227084 246.75213675213675 111.11111111111113 z "
                fill="black" stroke-linecap="square"
                stroke-linejoin="butt" stroke-width="0.3125"
                stroke-miterlimit="10.0" stroke-dashoffset="0.0" stroke="black"/>
        </g>
        <g latexdraw:type="dot" id="id2038282547" latexdraw:size="5.0"
            latexdraw:dotShape="*" latexdraw:position="288.8888888888889 111.11111111111113">
            <path
                d="M 291.19658119658123 111.11111111111113 C 291.19658119658123 112.38561437995142 290.1633921577292 113.41880341880344 288.8888888888889 113.41880341880344 C 287.6143856200486 113.41880341880344 286.5811965811966 112.38561437995142 286.5811965811966 111.11111111111113 C 286.5811965811966 109.83660784227084 287.6143856200486 108.80341880341882 288.8888888888889 108.80341880341882 C 290.1633921577292 108.80341880341882 291.19658119658123 109.83660784227084 291.19658119658123 111.11111111111113 z "
                fill="black" stroke-linecap="square"
                stroke-linejoin="butt" stroke-width="0.3125"
                stroke-miterlimit="10.0" stroke-dashoffset="0.0" stroke="black"/>
        </g>
        <g latexdraw:type="dot" id="id1480675452" latexdraw:size="5.0"
            latexdraw:dotShape="*" latexdraw:position="266.6666666666667 111.11111111111113">
            <path
                d="M 268.974358974359 111.11111111111113 C 268.974358974359 112.38561437995142 267.941169935507 113.41880341880344 266.6666666666667 113.41880341880344 C 265.3921633978264 113.41880341880344 264.35897435897436 112.38561437995142 264.35897435897436 111.11111111111113 C 264.35897435897436 109.83660784227084 265.3921633978264 108.80341880341882 266.6666666666667 108.80341880341882 C 267.941169935507 108.80341880341882 268.974358974359 109.83660784227084 268.974358974359 111.11111111111113 z "
                fill="black" stroke-linecap="square"
                stroke-linejoin="butt" stroke-width="0.3125"
                stroke-miterlimit="10.0" stroke-dashoffset="0.0" stroke="black"/>
        </g>
        <g latexdraw:type="dot" id="id1816984299" latexdraw:size="5.0"
            latexdraw:dotShape="*" latexdraw:position="311.11111111111114 111.11111111111113">
            <path
                d="M 313.41880341880346 111.11111111111113 C 313.41880341880346 112.38561437995142 312.38561437995145 113.41880341880344 311.11111111111114 113.41880341880344 C 309.83660784227084 113.41880341880344 308.8034188034188 112.38561437995142 308.8034188034188 111.11111111111113 C 308.8034188034188 109.83660784227084 309.83660784227084 108.80341880341882 311.11111111111114 108.80341880341882 C 312.38561437995145 108.80341880341882 313.41880341880346 109.83660784227084 313.41880341880346 111.11111111111113 z "
                fill="black" stroke-linecap="square"
                stroke-linejoin="butt" stroke-width="0.3125"
                stroke-miterlimit="10.0" stroke-dashoffset="0.0" stroke="black"/>
        </g>
        <g latexdraw:type="dot" id="id223245597" latexdraw:size="5.0"
            latexdraw:dotShape="*" latexdraw:position="333.33333333333337 111.11111111111113">
            <path
                d="M 335.6410256410257 111.11111111111113 C 335.6410256410257 112.38561437995142 334.6078366021737 113.41880341880344 333.33333333333337 113.41880341880344 C 332.05883006449307 113.41880341880344 331.02564102564105 112.38561437995142 331.02564102564105 111.11111111111113 C 331.02564102564105 109.83660784227084 332.05883006449307 108.80341880341882 333.33333333333337 108.80341880341882 C 334.6078366021737 108.80341880341882 335.6410256410257 109.83660784227084 335.6410256410257 111.11111111111113 z "
                fill="black" stroke-linecap="square"
                stroke-linejoin="butt" stroke-width="0.3125"
                stroke-miterlimit="10.0" stroke-dashoffset="0.0" stroke="black"/>
        </g>
        <g latexdraw:type="dot" id="id497968158" latexdraw:size="5.0"
            latexdraw:dotShape="*" latexdraw:position="333.33333333333337 133.33333333333334">
            <path
                d="M 335.6410256410257 133.33333333333334 C 335.6410256410257 134.60783660217362 334.6078366021737 135.64102564102564 333.33333333333337 135.64102564102564 C 332.05883006449307 135.64102564102564 331.02564102564105 134.60783660217362 331.02564102564105 133.33333333333334 C 331.02564102564105 132.05883006449304 332.05883006449307 131.02564102564102 333.33333333333337 131.02564102564102 C 334.6078366021737 131.02564102564102 335.6410256410257 132.05883006449304 335.6410256410257 133.33333333333334 z "
                fill="black" stroke-linecap="square"
                stroke-linejoin="butt" stroke-width="0.3125"
                stroke-miterlimit="10.0" stroke-dashoffset="0.0" stroke="black"/>
        </g>
        <g latexdraw:type="dot" id="id1277618570" latexdraw:size="5.0"
            latexdraw:dotShape="*" latexdraw:position="355.5555555555556 111.11111111111113">
            <path
                d="M 357.8632478632479 111.11111111111113 C 357.8632478632479 112.38561437995142 356.8300588243959 113.41880341880344 355.5555555555556 113.41880341880344 C 354.2810522867153 113.41880341880344 353.2478632478633 112.38561437995142 353.2478632478633 111.11111111111113 C 353.2478632478633 109.83660784227084 354.2810522867153 108.80341880341882 355.5555555555556 108.80341880341882 C 356.8300588243959 108.80341880341882 357.8632478632479 109.83660784227084 357.8632478632479 111.11111111111113 z "
                fill="black" stroke-linecap="square"
                stroke-linejoin="butt" stroke-width="0.3125"
                stroke-miterlimit="10.0" stroke-dashoffset="0.0" stroke="black"/>
        </g>
        <g latexdraw:type="dot" id="id1189147339" latexdraw:size="5.0"
            latexdraw:dotShape="*" latexdraw:position="355.5555555555556 88.8888888888889">
            <path
                d="M 357.8632478632479 88.8888888888889 C 357.8632478632479 90.16339215772919 356.8300588243959 91.1965811965812 355.5555555555556 91.1965811965812 C 354.2810522867153 91.1965811965812 353.2478632478633 90.16339215772919 353.2478632478633 88.8888888888889 C 353.2478632478633 87.61438562004861 354.2810522867153 86.5811965811966 355.5555555555556 86.5811965811966 C 356.8300588243959 86.5811965811966 357.8632478632479 87.61438562004861 357.8632478632479 88.8888888888889 z "
                fill="black" stroke-linecap="square"
                stroke-linejoin="butt" stroke-width="0.3125"
                stroke-miterlimit="10.0" stroke-dashoffset="0.0" stroke="black"/>
        </g>
        <g latexdraw:type="dot" id="id2074859922" latexdraw:size="5.0"
            latexdraw:dotShape="*" latexdraw:position="311.11111111111114 133.33333333333334">
            <path
                d="M 313.41880341880346 133.33333333333334 C 313.41880341880346 134.60783660217362 312.38561437995145 135.64102564102564 311.11111111111114 135.64102564102564 C 309.83660784227084 135.64102564102564 308.8034188034188 134.60783660217362 308.8034188034188 133.33333333333334 C 308.8034188034188 132.05883006449304 309.83660784227084 131.02564102564102 311.11111111111114 131.02564102564102 C 312.38561437995145 131.02564102564102 313.41880341880346 132.05883006449304 313.41880341880346 133.33333333333334 z "
                fill="black" stroke-linecap="square"
                stroke-linejoin="butt" stroke-width="0.3125"
                stroke-miterlimit="10.0" stroke-dashoffset="0.0" stroke="black"/>
        </g>
        <g latexdraw:type="dot" id="id358158255" latexdraw:size="5.0"
            latexdraw:dotShape="*" latexdraw:position="288.8888888888889 133.33333333333334">
            <path
                d="M 291.19658119658123 133.33333333333334 C 291.19658119658123 134.60783660217362 290.1633921577292 135.64102564102564 288.8888888888889 135.64102564102564 C 287.6143856200486 135.64102564102564 286.5811965811966 134.60783660217362 286.5811965811966 133.33333333333334 C 286.5811965811966 132.05883006449304 287.6143856200486 131.02564102564102 288.8888888888889 131.02564102564102 C 290.1633921577292 131.02564102564102 291.19658119658123 132.05883006449304 291.19658119658123 133.33333333333334 z "
                fill="black" stroke-linecap="square"
                stroke-linejoin="butt" stroke-width="0.3125"
                stroke-miterlimit="10.0" stroke-dashoffset="0.0" stroke="black"/>
        </g>
        <g latexdraw:type="dot" id="id1621421679" latexdraw:size="5.0"
            latexdraw:dotShape="*" latexdraw:position="288.8888888888889 133.33333333333334">
            <path
                d="M 291.19658119658123 133.33333333333334 C 291.19658119658123 134.60783660217362 290.1633921577292 135.64102564102564 288.8888888888889 135.64102564102564 C 287.6143856200486 135.64102564102564 286.5811965811966 134.60783660217362 286.5811965811966 133.33333333333334 C 286.5811965811966 132.05883006449304 287.6143856200486 131.02564102564102 288.8888888888889 131.02564102564102 C 290.1633921577292 131.02564102564102 291.19658119658123 132.05883006449304 291.19658119658123 133.33333333333334 z "
                fill="black" stroke-linecap="square"
                stroke-linejoin="butt" stroke-width="0.3125"
                stroke-miterlimit="10.0" stroke-dashoffset="0.0" stroke="black"/>
        </g>
        <g latexdraw:type="dot" id="id534502629" latexdraw:size="5.0"
            latexdraw:dotShape="*" latexdraw:position="266.6666666666667 133.33333333333334">
            <path
                d="M 268.974358974359 133.33333333333334 C 268.974358974359 134.60783660217362 267.941169935507 135.64102564102564 266.6666666666667 135.64102564102564 C 265.3921633978264 135.64102564102564 264.35897435897436 134.60783660217362 264.35897435897436 133.33333333333334 C 264.35897435897436 132.05883006449304 265.3921633978264 131.02564102564102 266.6666666666667 131.02564102564102 C 267.941169935507 131.02564102564102 268.974358974359 132.05883006449304 268.974358974359 133.33333333333334 z "
                fill="black" stroke-linecap="square"
                stroke-linejoin="butt" stroke-width="0.3125"
                stroke-miterlimit="10.0" stroke-dashoffset="0.0" stroke="black"/>
        </g>
        <g latexdraw:type="dot" id="id723402102" latexdraw:size="5.0"
            latexdraw:dotShape="*" latexdraw:position="244.44444444444446 133.33333333333334">
            <path
                d="M 246.75213675213675 133.33333333333334 C 246.75213675213675 134.60783660217362 245.71894771328473 135.64102564102564 244.44444444444446 135.64102564102564 C 243.16994117560415 135.64102564102564 242.13675213675214 134.60783660217362 242.13675213675214 133.33333333333334 C 242.13675213675214 132.05883006449304 243.16994117560415 131.02564102564102 244.44444444444446 131.02564102564102 C 245.71894771328473 131.02564102564102 246.75213675213675 132.05883006449304 246.75213675213675 133.33333333333334 z "
                fill="black" stroke-linecap="square"
                stroke-linejoin="butt" stroke-width="0.3125"
                stroke-miterlimit="10.0" stroke-dashoffset="0.0" stroke="black"/>
        </g>
        <g latexdraw:type="dot" id="id1009559832" latexdraw:size="5.0"
            latexdraw:dotShape="*" latexdraw:position="266.6666666666667 155.55555555555557">
            <path
                d="M 268.974358974359 155.55555555555557 C 268.974358974359 156.83005882439585 267.941169935507 157.86324786324786 266.6666666666667 157.86324786324786 C 265.3921633978264 157.86324786324786 264.35897435897436 156.83005882439585 264.35897435897436 155.55555555555557 C 264.35897435897436 154.28105228671527 265.3921633978264 153.24786324786325 266.6666666666667 153.24786324786325 C 267.941169935507 153.24786324786325 268.974358974359 154.28105228671527 268.974358974359 155.55555555555557 z "
                fill="black" stroke-linecap="square"
                stroke-linejoin="butt" stroke-width="0.3125"
                stroke-miterlimit="10.0" stroke-dashoffset="0.0" stroke="black"/>
        </g>
        <g latexdraw:type="dot" id="id2040190351" latexdraw:size="5.0"
            latexdraw:dotShape="*" latexdraw:position="288.8888888888889 155.55555555555557">
            <path
                d="M 291.19658119658123 155.55555555555557 C 291.19658119658123 156.83005882439585 290.1633921577292 157.86324786324786 288.8888888888889 157.86324786324786 C 287.6143856200486 157.86324786324786 286.5811965811966 156.83005882439585 286.5811965811966 155.55555555555557 C 286.5811965811966 154.28105228671527 287.6143856200486 153.24786324786325 288.8888888888889 153.24786324786325 C 290.1633921577292 153.24786324786325 291.19658119658123 154.28105228671527 291.19658119658123 155.55555555555557 z "
                fill="black" stroke-linecap="square"
                stroke-linejoin="butt" stroke-width="0.3125"
                stroke-miterlimit="10.0" stroke-dashoffset="0.0" stroke="black"/>
        </g>
        <g latexdraw:type="dot" id="id1458902113" latexdraw:size="5.0"
            latexdraw:dotShape="*" latexdraw:position="311.11111111111114 155.55555555555557">
            <path
                d="M 313.41880341880346 155.55555555555557 C 313.41880341880346 156.83005882439585 312.38561437995145 157.86324786324786 311.11111111111114 157.86324786324786 C 309.83660784227084 157.86324786324786 308.8034188034188 156.83005882439585 308.8034188034188 155.55555555555557 C 308.8034188034188 154.28105228671527 309.83660784227084 153.24786324786325 311.11111111111114 153.24786324786325 C 312.38561437995145 153.24786324786325 313.41880341880346 154.28105228671527 313.41880341880346 155.55555555555557 z "
                fill="black" stroke-linecap="square"
                stroke-linejoin="butt" stroke-width="0.3125"
                stroke-miterlimit="10.0" stroke-dashoffset="0.0" stroke="black"/>
        </g>
        <g latexdraw:type="dot" id="id1998543526" latexdraw:size="5.0"
            latexdraw:dotShape="*" latexdraw:position="311.11111111111114 155.55555555555557">
            <path
                d="M 313.41880341880346 155.55555555555557 C 313.41880341880346 156.83005882439585 312.38561437995145 157.86324786324786 311.11111111111114 157.86324786324786 C 309.83660784227084 157.86324786324786 308.8034188034188 156.83005882439585 308.8034188034188 155.55555555555557 C 308.8034188034188 154.28105228671527 309.83660784227084 153.24786324786325 311.11111111111114 153.24786324786325 C 312.38561437995145 153.24786324786325 313.41880341880346 154.28105228671527 313.41880341880346 155.55555555555557 z "
                fill="black" stroke-linecap="square"
                stroke-linejoin="butt" stroke-width="0.3125"
                stroke-miterlimit="10.0" stroke-dashoffset="0.0" stroke="black"/>
        </g>
        <g latexdraw:type="dot" id="id1182254746" latexdraw:size="5.0"
            latexdraw:dotShape="*" latexdraw:position="333.33333333333337 155.55555555555557">
            <path
                d="M 335.6410256410257 155.55555555555557 C 335.6410256410257 156.83005882439585 334.6078366021737 157.86324786324786 333.33333333333337 157.86324786324786 C 332.05883006449307 157.86324786324786 331.02564102564105 156.83005882439585 331.02564102564105 155.55555555555557 C 331.02564102564105 154.28105228671527 332.05883006449307 153.24786324786325 333.33333333333337 153.24786324786325 C 334.6078366021737 153.24786324786325 335.6410256410257 154.28105228671527 335.6410256410257 155.55555555555557 z "
                fill="black" stroke-linecap="square"
                stroke-linejoin="butt" stroke-width="0.3125"
                stroke-miterlimit="10.0" stroke-dashoffset="0.0" stroke="black"/>
        </g>
        <g latexdraw:type="dot" id="id629953519" latexdraw:size="5.0"
            latexdraw:dotShape="*" latexdraw:position="733.3333333333334 66.66666666666667">
            <path
                d="M 735.6410256410257 66.66666666666667 C 735.6410256410257 67.94116993550696 734.6078366021737 68.97435897435898 733.3333333333334 68.97435897435898 C 732.0588300644931 68.97435897435898 731.0256410256411 67.94116993550696 731.0256410256411 66.66666666666667 C 731.0256410256411 65.39216339782638 732.0588300644931 64.35897435897436 733.3333333333334 64.35897435897436 C 734.6078366021737 64.35897435897436 735.6410256410257 65.39216339782638 735.6410256410257 66.66666666666667 z "
                fill="black" stroke-linecap="square"
                stroke-linejoin="butt" stroke-width="0.3125"
                stroke-miterlimit="10.0" stroke-dashoffset="0.0" stroke="black"/>
        </g>
        <g latexdraw:type="dot" id="id435418620" latexdraw:size="5.0"
            latexdraw:dotShape="*" latexdraw:position="711.1111111111112 44.44444444444445">
            <path
                d="M 713.4188034188036 44.44444444444445 C 713.4188034188036 45.71894771328474 712.3856143799516 46.75213675213676 711.1111111111112 46.75213675213676 C 709.836607842271 46.75213675213676 708.8034188034189 45.71894771328474 708.8034188034189 44.44444444444445 C 708.8034188034189 43.16994117560416 709.836607842271 42.13675213675214 711.1111111111112 42.13675213675214 C 712.3856143799516 42.13675213675214 713.4188034188036 43.16994117560416 713.4188034188036 44.44444444444445 z "
                fill="black" stroke-linecap="square"
                stroke-linejoin="butt" stroke-width="0.3125"
                stroke-miterlimit="10.0" stroke-dashoffset="0.0" stroke="black"/>
        </g>
        <g latexdraw:type="dot" id="id699014997" latexdraw:size="5.0"
            latexdraw:dotShape="*" latexdraw:position="733.3333333333334 44.44444444444445">
            <path
                d="M 735.6410256410257 44.44444444444445 C 735.6410256410257 45.71894771328474 734.6078366021737 46.75213675213676 733.3333333333334 46.75213675213676 C 732.0588300644931 46.75213675213676 731.0256410256411 45.71894771328474 731.0256410256411 44.44444444444445 C 731.0256410256411 43.16994117560416 732.0588300644931 42.13675213675214 733.3333333333334 42.13675213675214 C 734.6078366021737 42.13675213675214 735.6410256410257 43.16994117560416 735.6410256410257 44.44444444444445 z "
                fill="black" stroke-linecap="square"
                stroke-linejoin="butt" stroke-width="0.3125"
                stroke-miterlimit="10.0" stroke-dashoffset="0.0" stroke="black"/>
        </g>
        <g latexdraw:type="dot" id="id201202688" latexdraw:size="5.0"
            latexdraw:dotShape="*" latexdraw:position="755.5555555555557 44.44444444444445">
            <path
                d="M 757.863247863248 44.44444444444445 C 757.863247863248 45.71894771328474 756.830058824396 46.75213675213676 755.5555555555557 46.75213675213676 C 754.2810522867154 46.75213675213676 753.2478632478634 45.71894771328474 753.2478632478634 44.44444444444445 C 753.2478632478634 43.16994117560416 754.2810522867154 42.13675213675214 755.5555555555557 42.13675213675214 C 756.830058824396 42.13675213675214 757.863247863248 43.16994117560416 757.863247863248 44.44444444444445 z "
                fill="black" stroke-linecap="square"
                stroke-linejoin="butt" stroke-width="0.3125"
                stroke-miterlimit="10.0" stroke-dashoffset="0.0" stroke="black"/>
        </g>
        <g latexdraw:type="dot" id="id1843666576" latexdraw:size="5.0"
            latexdraw:dotShape="*" latexdraw:position="266.6666666666667 44.44444444444445">
            <path
                d="M 268.974358974359 44.44444444444445 C 268.974358974359 45.71894771328474 267.941169935507 46.75213675213676 266.6666666666667 46.75213675213676 C 265.3921633978264 46.75213675213676 264.35897435897436 45.71894771328474 264.35897435897436 44.44444444444445 C 264.35897435897436 43.16994117560416 265.3921633978264 42.13675213675214 266.6666666666667 42.13675213675214 C 267.941169935507 42.13675213675214 268.974358974359 43.16994117560416 268.974358974359 44.44444444444445 z "
                fill="black" stroke-linecap="square"
                stroke-linejoin="butt" stroke-width="0.3125"
                stroke-miterlimit="10.0" stroke-dashoffset="0.0" stroke="black"/>
        </g>
        <g latexdraw:type="dot" id="id967320472" latexdraw:size="5.0"
            latexdraw:dotShape="*" latexdraw:position="311.11111111111114 44.44444444444445">
            <path
                d="M 313.41880341880346 44.44444444444445 C 313.41880341880346 45.71894771328474 312.38561437995145 46.75213675213676 311.11111111111114 46.75213675213676 C 309.83660784227084 46.75213675213676 308.8034188034188 45.71894771328474 308.8034188034188 44.44444444444445 C 308.8034188034188 43.16994117560416 309.83660784227084 42.13675213675214 311.11111111111114 42.13675213675214 C 312.38561437995145 42.13675213675214 313.41880341880346 43.16994117560416 313.41880341880346 44.44444444444445 z "
                fill="black" stroke-linecap="square"
                stroke-linejoin="butt" stroke-width="0.3125"
                stroke-miterlimit="10.0" stroke-dashoffset="0.0" stroke="black"/>
        </g>
        <g latexdraw:type="dot" id="id261886771" latexdraw:size="5.0"
            latexdraw:dotShape="*" latexdraw:position="311.11111111111114 44.44444444444445">
            <path
                d="M 313.41880341880346 44.44444444444445 C 313.41880341880346 45.71894771328474 312.38561437995145 46.75213675213676 311.11111111111114 46.75213675213676 C 309.83660784227084 46.75213675213676 308.8034188034188 45.71894771328474 308.8034188034188 44.44444444444445 C 308.8034188034188 43.16994117560416 309.83660784227084 42.13675213675214 311.11111111111114 42.13675213675214 C 312.38561437995145 42.13675213675214 313.41880341880346 43.16994117560416 313.41880341880346 44.44444444444445 z "
                fill="black" stroke-linecap="square"
                stroke-linejoin="butt" stroke-width="0.3125"
                stroke-miterlimit="10.0" stroke-dashoffset="0.0" stroke="black"/>
        </g>
        <g latexdraw:type="dot" id="id1559757601" latexdraw:size="5.0"
            latexdraw:dotShape="*" latexdraw:position="711.1111111111112 66.66666666666667">
            <path
                d="M 713.4188034188036 66.66666666666667 C 713.4188034188036 67.94116993550696 712.3856143799516 68.97435897435898 711.1111111111112 68.97435897435898 C 709.836607842271 68.97435897435898 708.8034188034189 67.94116993550696 708.8034188034189 66.66666666666667 C 708.8034188034189 65.39216339782638 709.836607842271 64.35897435897436 711.1111111111112 64.35897435897436 C 712.3856143799516 64.35897435897436 713.4188034188036 65.39216339782638 713.4188034188036 66.66666666666667 z "
                fill="black" stroke-linecap="square"
                stroke-linejoin="butt" stroke-width="0.3125"
                stroke-miterlimit="10.0" stroke-dashoffset="0.0" stroke="black"/>
        </g>
        <g latexdraw:type="dot" id="id2100712197" latexdraw:size="5.0"
            latexdraw:dotShape="*" latexdraw:position="733.3333333333334 66.66666666666667">
            <path
                d="M 735.6410256410257 66.66666666666667 C 735.6410256410257 67.94116993550696 734.6078366021737 68.97435897435898 733.3333333333334 68.97435897435898 C 732.0588300644931 68.97435897435898 731.0256410256411 67.94116993550696 731.0256410256411 66.66666666666667 C 731.0256410256411 65.39216339782638 732.0588300644931 64.35897435897436 733.3333333333334 64.35897435897436 C 734.6078366021737 64.35897435897436 735.6410256410257 65.39216339782638 735.6410256410257 66.66666666666667 z "
                fill="black" stroke-linecap="square"
                stroke-linejoin="butt" stroke-width="0.3125"
                stroke-miterlimit="10.0" stroke-dashoffset="0.0" stroke="black"/>
        </g>
        <g latexdraw:type="dot" id="id1744776085" latexdraw:size="5.0"
            latexdraw:dotShape="*" latexdraw:position="755.5555555555557 66.66666666666667">
            <path
                d="M 757.863247863248 66.66666666666667 C 757.863247863248 67.94116993550696 756.830058824396 68.97435897435898 755.5555555555557 68.97435897435898 C 754.2810522867154 68.97435897435898 753.2478632478634 67.94116993550696 753.2478632478634 66.66666666666667 C 753.2478632478634 65.39216339782638 754.2810522867154 64.35897435897436 755.5555555555557 64.35897435897436 C 756.830058824396 64.35897435897436 757.863247863248 65.39216339782638 757.863247863248 66.66666666666667 z "
                fill="black" stroke-linecap="square"
                stroke-linejoin="butt" stroke-width="0.3125"
                stroke-miterlimit="10.0" stroke-dashoffset="0.0" stroke="black"/>
        </g>
        <g latexdraw:type="dot" id="id1548332264" latexdraw:size="5.0"
            latexdraw:dotShape="*" latexdraw:position="777.7777777777778 66.66666666666667">
            <path
                d="M 780.0854700854702 66.66666666666667 C 780.0854700854702 67.94116993550696 779.0522810466182 68.97435897435898 777.7777777777778 68.97435897435898 C 776.5032745089376 68.97435897435898 775.4700854700856 67.94116993550696 775.4700854700856 66.66666666666667 C 775.4700854700856 65.39216339782638 776.5032745089376 64.35897435897436 777.7777777777778 64.35897435897436 C 779.0522810466182 64.35897435897436 780.0854700854702 65.39216339782638 780.0854700854702 66.66666666666667 z "
                fill="black" stroke-linecap="square"
                stroke-linejoin="butt" stroke-width="0.3125"
                stroke-miterlimit="10.0" stroke-dashoffset="0.0" stroke="black"/>
        </g>
        <g latexdraw:type="dot" id="id804078500" latexdraw:size="5.0"
            latexdraw:dotShape="*" latexdraw:position="688.8888888888889 66.66666666666667">
            <path
                d="M 691.1965811965813 66.66666666666667 C 691.1965811965813 67.94116993550696 690.1633921577293 68.97435897435898 688.8888888888889 68.97435897435898 C 687.6143856200487 68.97435897435898 686.5811965811967 67.94116993550696 686.5811965811967 66.66666666666667 C 686.5811965811967 65.39216339782638 687.6143856200487 64.35897435897436 688.8888888888889 64.35897435897436 C 690.1633921577293 64.35897435897436 691.1965811965813 65.39216339782638 691.1965811965813 66.66666666666667 z "
                fill="black" stroke-linecap="square"
                stroke-linejoin="butt" stroke-width="0.3125"
                stroke-miterlimit="10.0" stroke-dashoffset="0.0" stroke="black"/>
        </g>
        <g latexdraw:type="dot" id="id1853169460" latexdraw:size="5.0"
            latexdraw:dotShape="*" latexdraw:position="666.6666666666667 88.8888888888889">
            <path
                d="M 668.9743589743591 88.8888888888889 C 668.9743589743591 90.16339215772919 667.9411699355071 91.1965811965812 666.6666666666667 91.1965811965812 C 665.3921633978265 91.1965811965812 664.3589743589745 90.16339215772919 664.3589743589745 88.8888888888889 C 664.3589743589745 87.61438562004861 665.3921633978265 86.5811965811966 666.6666666666667 86.5811965811966 C 667.9411699355071 86.5811965811966 668.9743589743591 87.61438562004861 668.9743589743591 88.8888888888889 z "
                fill="black" stroke-linecap="square"
                stroke-linejoin="butt" stroke-width="0.3125"
                stroke-miterlimit="10.0" stroke-dashoffset="0.0" stroke="black"/>
        </g>
        <g latexdraw:type="dot" id="id420365207" latexdraw:size="5.0"
            latexdraw:dotShape="*" latexdraw:position="688.8888888888889 88.8888888888889">
            <path
                d="M 691.1965811965813 88.8888888888889 C 691.1965811965813 90.16339215772919 690.1633921577293 91.1965811965812 688.8888888888889 91.1965811965812 C 687.6143856200487 91.1965811965812 686.5811965811967 90.16339215772919 686.5811965811967 88.8888888888889 C 686.5811965811967 87.61438562004861 687.6143856200487 86.5811965811966 688.8888888888889 86.5811965811966 C 690.1633921577293 86.5811965811966 691.1965811965813 87.61438562004861 691.1965811965813 88.8888888888889 z "
                fill="black" stroke-linecap="square"
                stroke-linejoin="butt" stroke-width="0.3125"
                stroke-miterlimit="10.0" stroke-dashoffset="0.0" stroke="black"/>
        </g>
        <g latexdraw:type="dot" id="id1982935921" latexdraw:size="5.0"
            latexdraw:dotShape="*" latexdraw:position="688.8888888888889 88.8888888888889">
            <path
                d="M 691.1965811965813 88.8888888888889 C 691.1965811965813 90.16339215772919 690.1633921577293 91.1965811965812 688.8888888888889 91.1965811965812 C 687.6143856200487 91.1965811965812 686.5811965811967 90.16339215772919 686.5811965811967 88.8888888888889 C 686.5811965811967 87.61438562004861 687.6143856200487 86.5811965811966 688.8888888888889 86.5811965811966 C 690.1633921577293 86.5811965811966 691.1965811965813 87.61438562004861 691.1965811965813 88.8888888888889 z "
                fill="black" stroke-linecap="square"
                stroke-linejoin="butt" stroke-width="0.3125"
                stroke-miterlimit="10.0" stroke-dashoffset="0.0" stroke="black"/>
        </g>
        <g latexdraw:type="dot" id="id523226229" latexdraw:size="5.0"
            latexdraw:dotShape="*" latexdraw:position="711.1111111111112 88.8888888888889">
            <path
                d="M 713.4188034188036 88.8888888888889 C 713.4188034188036 90.16339215772919 712.3856143799516 91.1965811965812 711.1111111111112 91.1965811965812 C 709.836607842271 91.1965811965812 708.8034188034189 90.16339215772919 708.8034188034189 88.8888888888889 C 708.8034188034189 87.61438562004861 709.836607842271 86.5811965811966 711.1111111111112 86.5811965811966 C 712.3856143799516 86.5811965811966 713.4188034188036 87.61438562004861 713.4188034188036 88.8888888888889 z "
                fill="black" stroke-linecap="square"
                stroke-linejoin="butt" stroke-width="0.3125"
                stroke-miterlimit="10.0" stroke-dashoffset="0.0" stroke="black"/>
        </g>
        <g latexdraw:type="dot" id="id140387056" latexdraw:size="5.0"
            latexdraw:dotShape="*" latexdraw:position="733.3333333333334 88.8888888888889">
            <path
                d="M 735.6410256410257 88.8888888888889 C 735.6410256410257 90.16339215772919 734.6078366021737 91.1965811965812 733.3333333333334 91.1965811965812 C 732.0588300644931 91.1965811965812 731.0256410256411 90.16339215772919 731.0256410256411 88.8888888888889 C 731.0256410256411 87.61438562004861 732.0588300644931 86.5811965811966 733.3333333333334 86.5811965811966 C 734.6078366021737 86.5811965811966 735.6410256410257 87.61438562004861 735.6410256410257 88.8888888888889 z "
                fill="black" stroke-linecap="square"
                stroke-linejoin="butt" stroke-width="0.3125"
                stroke-miterlimit="10.0" stroke-dashoffset="0.0" stroke="black"/>
        </g>
        <g latexdraw:type="dot" id="id742140904" latexdraw:size="5.0"
            latexdraw:dotShape="*" latexdraw:position="733.3333333333334 88.8888888888889">
            <path
                d="M 735.6410256410257 88.8888888888889 C 735.6410256410257 90.16339215772919 734.6078366021737 91.1965811965812 733.3333333333334 91.1965811965812 C 732.0588300644931 91.1965811965812 731.0256410256411 90.16339215772919 731.0256410256411 88.8888888888889 C 731.0256410256411 87.61438562004861 732.0588300644931 86.5811965811966 733.3333333333334 86.5811965811966 C 734.6078366021737 86.5811965811966 735.6410256410257 87.61438562004861 735.6410256410257 88.8888888888889 z "
                fill="black" stroke-linecap="square"
                stroke-linejoin="butt" stroke-width="0.3125"
                stroke-miterlimit="10.0" stroke-dashoffset="0.0" stroke="black"/>
        </g>
        <g latexdraw:type="dot" id="id2068268493" latexdraw:size="5.0"
            latexdraw:dotShape="*" latexdraw:position="755.5555555555557 88.8888888888889">
            <path
                d="M 757.863247863248 88.8888888888889 C 757.863247863248 90.16339215772919 756.830058824396 91.1965811965812 755.5555555555557 91.1965811965812 C 754.2810522867154 91.1965811965812 753.2478632478634 90.16339215772919 753.2478632478634 88.8888888888889 C 753.2478632478634 87.61438562004861 754.2810522867154 86.5811965811966 755.5555555555557 86.5811965811966 C 756.830058824396 86.5811965811966 757.863247863248 87.61438562004861 757.863247863248 88.8888888888889 z "
                fill="black" stroke-linecap="square"
                stroke-linejoin="butt" stroke-width="0.3125"
                stroke-miterlimit="10.0" stroke-dashoffset="0.0" stroke="black"/>
        </g>
        <g latexdraw:type="dot" id="id1945060455" latexdraw:size="5.0"
            latexdraw:dotShape="*" latexdraw:position="777.7777777777778 88.8888888888889">
            <path
                d="M 780.0854700854702 88.8888888888889 C 780.0854700854702 90.16339215772919 779.0522810466182 91.1965811965812 777.7777777777778 91.1965811965812 C 776.5032745089376 91.1965811965812 775.4700854700856 90.16339215772919 775.4700854700856 88.8888888888889 C 775.4700854700856 87.61438562004861 776.5032745089376 86.5811965811966 777.7777777777778 86.5811965811966 C 779.0522810466182 86.5811965811966 780.0854700854702 87.61438562004861 780.0854700854702 88.8888888888889 z "
                fill="black" stroke-linecap="square"
                stroke-linejoin="butt" stroke-width="0.3125"
                stroke-miterlimit="10.0" stroke-dashoffset="0.0" stroke="black"/>
        </g>
        <g latexdraw:type="dot" id="id226046087" latexdraw:size="5.0"
            latexdraw:dotShape="*" latexdraw:position="800.0000000000001 111.11111111111113">
            <path
                d="M 802.3076923076925 111.11111111111113 C 802.3076923076925 112.38561437995142 801.2745032688405 113.41880341880344 800.0000000000001 113.41880341880344 C 798.7254967311599 113.41880341880344 797.6923076923078 112.38561437995142 797.6923076923078 111.11111111111113 C 797.6923076923078 109.83660784227084 798.7254967311599 108.80341880341882 800.0000000000001 108.80341880341882 C 801.2745032688405 108.80341880341882 802.3076923076925 109.83660784227084 802.3076923076925 111.11111111111113 z "
                fill="black" stroke-linecap="square"
                stroke-linejoin="butt" stroke-width="0.3125"
                stroke-miterlimit="10.0" stroke-dashoffset="0.0" stroke="black"/>
        </g>
        <g latexdraw:type="dot" id="id739877407" latexdraw:size="5.0"
            latexdraw:dotShape="*" latexdraw:position="777.7777777777778 111.11111111111113">
            <path
                d="M 780.0854700854702 111.11111111111113 C 780.0854700854702 112.38561437995142 779.0522810466182 113.41880341880344 777.7777777777778 113.41880341880344 C 776.5032745089376 113.41880341880344 775.4700854700856 112.38561437995142 775.4700854700856 111.11111111111113 C 775.4700854700856 109.83660784227084 776.5032745089376 108.80341880341882 777.7777777777778 108.80341880341882 C 779.0522810466182 108.80341880341882 780.0854700854702 109.83660784227084 780.0854700854702 111.11111111111113 z "
                fill="black" stroke-linecap="square"
                stroke-linejoin="butt" stroke-width="0.3125"
                stroke-miterlimit="10.0" stroke-dashoffset="0.0" stroke="black"/>
        </g>
        <g latexdraw:type="dot" id="id808833275" latexdraw:size="5.0"
            latexdraw:dotShape="*" latexdraw:position="755.5555555555557 111.11111111111113">
            <path
                d="M 757.863247863248 111.11111111111113 C 757.863247863248 112.38561437995142 756.830058824396 113.41880341880344 755.5555555555557 113.41880341880344 C 754.2810522867154 113.41880341880344 753.2478632478634 112.38561437995142 753.2478632478634 111.11111111111113 C 753.2478632478634 109.83660784227084 754.2810522867154 108.80341880341882 755.5555555555557 108.80341880341882 C 756.830058824396 108.80341880341882 757.863247863248 109.83660784227084 757.863247863248 111.11111111111113 z "
                fill="black" stroke-linecap="square"
                stroke-linejoin="butt" stroke-width="0.3125"
                stroke-miterlimit="10.0" stroke-dashoffset="0.0" stroke="black"/>
        </g>
        <g latexdraw:type="dot" id="id118896231" latexdraw:size="5.0"
            latexdraw:dotShape="*" latexdraw:position="733.3333333333334 111.11111111111113">
            <path
                d="M 735.6410256410257 111.11111111111113 C 735.6410256410257 112.38561437995142 734.6078366021737 113.41880341880344 733.3333333333334 113.41880341880344 C 732.0588300644931 113.41880341880344 731.0256410256411 112.38561437995142 731.0256410256411 111.11111111111113 C 731.0256410256411 109.83660784227084 732.0588300644931 108.80341880341882 733.3333333333334 108.80341880341882 C 734.6078366021737 108.80341880341882 735.6410256410257 109.83660784227084 735.6410256410257 111.11111111111113 z "
                fill="black" stroke-linecap="square"
                stroke-linejoin="butt" stroke-width="0.3125"
                stroke-miterlimit="10.0" stroke-dashoffset="0.0" stroke="black"/>
        </g>
        <g latexdraw:type="dot" id="id212658459" latexdraw:size="5.0"
            latexdraw:dotShape="*" latexdraw:position="711.1111111111112 111.11111111111113">
            <path
                d="M 713.4188034188036 111.11111111111113 C 713.4188034188036 112.38561437995142 712.3856143799516 113.41880341880344 711.1111111111112 113.41880341880344 C 709.836607842271 113.41880341880344 708.8034188034189 112.38561437995142 708.8034188034189 111.11111111111113 C 708.8034188034189 109.83660784227084 709.836607842271 108.80341880341882 711.1111111111112 108.80341880341882 C 712.3856143799516 108.80341880341882 713.4188034188036 109.83660784227084 713.4188034188036 111.11111111111113 z "
                fill="black" stroke-linecap="square"
                stroke-linejoin="butt" stroke-width="0.3125"
                stroke-miterlimit="10.0" stroke-dashoffset="0.0" stroke="black"/>
        </g>
        <g latexdraw:type="dot" id="id790323370" latexdraw:size="5.0"
            latexdraw:dotShape="*" latexdraw:position="688.8888888888889 111.11111111111113">
            <path
                d="M 691.1965811965813 111.11111111111113 C 691.1965811965813 112.38561437995142 690.1633921577293 113.41880341880344 688.8888888888889 113.41880341880344 C 687.6143856200487 113.41880341880344 686.5811965811967 112.38561437995142 686.5811965811967 111.11111111111113 C 686.5811965811967 109.83660784227084 687.6143856200487 108.80341880341882 688.8888888888889 108.80341880341882 C 690.1633921577293 108.80341880341882 691.1965811965813 109.83660784227084 691.1965811965813 111.11111111111113 z "
                fill="black" stroke-linecap="square"
                stroke-linejoin="butt" stroke-width="0.3125"
                stroke-miterlimit="10.0" stroke-dashoffset="0.0" stroke="black"/>
        </g>
        <g latexdraw:type="dot" id="id1418308410" latexdraw:size="5.0"
            latexdraw:dotShape="*" latexdraw:position="688.8888888888889 111.11111111111113">
            <path
                d="M 691.1965811965813 111.11111111111113 C 691.1965811965813 112.38561437995142 690.1633921577293 113.41880341880344 688.8888888888889 113.41880341880344 C 687.6143856200487 113.41880341880344 686.5811965811967 112.38561437995142 686.5811965811967 111.11111111111113 C 686.5811965811967 109.83660784227084 687.6143856200487 108.80341880341882 688.8888888888889 108.80341880341882 C 690.1633921577293 108.80341880341882 691.1965811965813 109.83660784227084 691.1965811965813 111.11111111111113 z "
                fill="black" stroke-linecap="square"
                stroke-linejoin="butt" stroke-width="0.3125"
                stroke-miterlimit="10.0" stroke-dashoffset="0.0" stroke="black"/>
        </g>
        <g latexdraw:type="dot" id="id2146638328" latexdraw:size="5.0"
            latexdraw:dotShape="*" latexdraw:position="666.6666666666667 111.11111111111113">
            <path
                d="M 668.9743589743591 111.11111111111113 C 668.9743589743591 112.38561437995142 667.9411699355071 113.41880341880344 666.6666666666667 113.41880341880344 C 665.3921633978265 113.41880341880344 664.3589743589745 112.38561437995142 664.3589743589745 111.11111111111113 C 664.3589743589745 109.83660784227084 665.3921633978265 108.80341880341882 666.6666666666667 108.80341880341882 C 667.9411699355071 108.80341880341882 668.9743589743591 109.83660784227084 668.9743589743591 111.11111111111113 z "
                fill="black" stroke-linecap="square"
                stroke-linejoin="butt" stroke-width="0.3125"
                stroke-miterlimit="10.0" stroke-dashoffset="0.0" stroke="black"/>
        </g>
        <g latexdraw:type="dot" id="id1786708920" latexdraw:size="5.0"
            latexdraw:dotShape="*" latexdraw:position="688.8888888888889 133.33333333333334">
            <path
                d="M 691.1965811965813 133.33333333333334 C 691.1965811965813 134.60783660217362 690.1633921577293 135.64102564102564 688.8888888888889 135.64102564102564 C 687.6143856200487 135.64102564102564 686.5811965811967 134.60783660217362 686.5811965811967 133.33333333333334 C 686.5811965811967 132.05883006449304 687.6143856200487 131.02564102564102 688.8888888888889 131.02564102564102 C 690.1633921577293 131.02564102564102 691.1965811965813 132.05883006449304 691.1965811965813 133.33333333333334 z "
                fill="black" stroke-linecap="square"
                stroke-linejoin="butt" stroke-width="0.3125"
                stroke-miterlimit="10.0" stroke-dashoffset="0.0" stroke="black"/>
        </g>
        <g latexdraw:type="dot" id="id1330604523" latexdraw:size="5.0"
            latexdraw:dotShape="*" latexdraw:position="711.1111111111112 133.33333333333334">
            <path
                d="M 713.4188034188036 133.33333333333334 C 713.4188034188036 134.60783660217362 712.3856143799516 135.64102564102564 711.1111111111112 135.64102564102564 C 709.836607842271 135.64102564102564 708.8034188034189 134.60783660217362 708.8034188034189 133.33333333333334 C 708.8034188034189 132.05883006449304 709.836607842271 131.02564102564102 711.1111111111112 131.02564102564102 C 712.3856143799516 131.02564102564102 713.4188034188036 132.05883006449304 713.4188034188036 133.33333333333334 z "
                fill="black" stroke-linecap="square"
                stroke-linejoin="butt" stroke-width="0.3125"
                stroke-miterlimit="10.0" stroke-dashoffset="0.0" stroke="black"/>
        </g>
        <g latexdraw:type="dot" id="id469470217" latexdraw:size="5.0"
            latexdraw:dotShape="*" latexdraw:position="755.5555555555557 133.33333333333334">
            <path
                d="M 757.863247863248 133.33333333333334 C 757.863247863248 134.60783660217362 756.830058824396 135.64102564102564 755.5555555555557 135.64102564102564 C 754.2810522867154 135.64102564102564 753.2478632478634 134.60783660217362 753.2478632478634 133.33333333333334 C 753.2478632478634 132.05883006449304 754.2810522867154 131.02564102564102 755.5555555555557 131.02564102564102 C 756.830058824396 131.02564102564102 757.863247863248 132.05883006449304 757.863247863248 133.33333333333334 z "
                fill="black" stroke-linecap="square"
                stroke-linejoin="butt" stroke-width="0.3125"
                stroke-miterlimit="10.0" stroke-dashoffset="0.0" stroke="black"/>
        </g>
        <g latexdraw:type="dot" id="id597278552" latexdraw:size="5.0"
            latexdraw:dotShape="*" latexdraw:position="733.3333333333334 133.33333333333334">
            <path
                d="M 735.6410256410257 133.33333333333334 C 735.6410256410257 134.60783660217362 734.6078366021737 135.64102564102564 733.3333333333334 135.64102564102564 C 732.0588300644931 135.64102564102564 731.0256410256411 134.60783660217362 731.0256410256411 133.33333333333334 C 731.0256410256411 132.05883006449304 732.0588300644931 131.02564102564102 733.3333333333334 131.02564102564102 C 734.6078366021737 131.02564102564102 735.6410256410257 132.05883006449304 735.6410256410257 133.33333333333334 z "
                fill="black" stroke-linecap="square"
                stroke-linejoin="butt" stroke-width="0.3125"
                stroke-miterlimit="10.0" stroke-dashoffset="0.0" stroke="black"/>
        </g>
        <g latexdraw:type="dot" id="id880555893" latexdraw:size="5.0"
            latexdraw:dotShape="*" latexdraw:position="777.7777777777778 133.33333333333334">
            <path
                d="M 780.0854700854702 133.33333333333334 C 780.0854700854702 134.60783660217362 779.0522810466182 135.64102564102564 777.7777777777778 135.64102564102564 C 776.5032745089376 135.64102564102564 775.4700854700856 134.60783660217362 775.4700854700856 133.33333333333334 C 775.4700854700856 132.05883006449304 776.5032745089376 131.02564102564102 777.7777777777778 131.02564102564102 C 779.0522810466182 131.02564102564102 780.0854700854702 132.05883006449304 780.0854700854702 133.33333333333334 z "
                fill="black" stroke-linecap="square"
                stroke-linejoin="butt" stroke-width="0.3125"
                stroke-miterlimit="10.0" stroke-dashoffset="0.0" stroke="black"/>
        </g>
        <g latexdraw:type="dot" id="id566517495" latexdraw:size="5.0"
            latexdraw:dotShape="*" latexdraw:position="711.1111111111112 155.55555555555557">
            <path
                d="M 713.4188034188036 155.55555555555557 C 713.4188034188036 156.83005882439585 712.3856143799516 157.86324786324786 711.1111111111112 157.86324786324786 C 709.836607842271 157.86324786324786 708.8034188034189 156.83005882439585 708.8034188034189 155.55555555555557 C 708.8034188034189 154.28105228671527 709.836607842271 153.24786324786325 711.1111111111112 153.24786324786325 C 712.3856143799516 153.24786324786325 713.4188034188036 154.28105228671527 713.4188034188036 155.55555555555557 z "
                fill="black" stroke-linecap="square"
                stroke-linejoin="butt" stroke-width="0.3125"
                stroke-miterlimit="10.0" stroke-dashoffset="0.0" stroke="black"/>
        </g>
        <g latexdraw:type="dot" id="id70293707" latexdraw:size="5.0"
            latexdraw:dotShape="*" latexdraw:position="733.3333333333334 155.55555555555557">
            <path
                d="M 735.6410256410257 155.55555555555557 C 735.6410256410257 156.83005882439585 734.6078366021737 157.86324786324786 733.3333333333334 157.86324786324786 C 732.0588300644931 157.86324786324786 731.0256410256411 156.83005882439585 731.0256410256411 155.55555555555557 C 731.0256410256411 154.28105228671527 732.0588300644931 153.24786324786325 733.3333333333334 153.24786324786325 C 734.6078366021737 153.24786324786325 735.6410256410257 154.28105228671527 735.6410256410257 155.55555555555557 z "
                fill="black" stroke-linecap="square"
                stroke-linejoin="butt" stroke-width="0.3125"
                stroke-miterlimit="10.0" stroke-dashoffset="0.0" stroke="black"/>
        </g>
        <g latexdraw:type="dot" id="id34954962" latexdraw:size="5.0"
            latexdraw:dotShape="*" latexdraw:position="755.5555555555557 155.55555555555557">
            <path
                d="M 757.863247863248 155.55555555555557 C 757.863247863248 156.83005882439585 756.830058824396 157.86324786324786 755.5555555555557 157.86324786324786 C 754.2810522867154 157.86324786324786 753.2478632478634 156.83005882439585 753.2478632478634 155.55555555555557 C 753.2478632478634 154.28105228671527 754.2810522867154 153.24786324786325 755.5555555555557 153.24786324786325 C 756.830058824396 153.24786324786325 757.863247863248 154.28105228671527 757.863247863248 155.55555555555557 z "
                fill="black" stroke-linecap="square"
                stroke-linejoin="butt" stroke-width="0.3125"
                stroke-miterlimit="10.0" stroke-dashoffset="0.0" stroke="black"/>
        </g>
        <g latexdraw:type="dot" id="id1171714264" latexdraw:size="5.0"
            latexdraw:dotShape="*" latexdraw:position="777.7777777777778 155.55555555555557">
            <path
                d="M 780.0854700854702 155.55555555555557 C 780.0854700854702 156.83005882439585 779.0522810466182 157.86324786324786 777.7777777777778 157.86324786324786 C 776.5032745089376 157.86324786324786 775.4700854700856 156.83005882439585 775.4700854700856 155.55555555555557 C 775.4700854700856 154.28105228671527 776.5032745089376 153.24786324786325 777.7777777777778 153.24786324786325 C 779.0522810466182 153.24786324786325 780.0854700854702 154.28105228671527 780.0854700854702 155.55555555555557 z "
                fill="black" stroke-linecap="square"
                stroke-linejoin="butt" stroke-width="0.3125"
                stroke-miterlimit="10.0" stroke-dashoffset="0.0" stroke="black"/>
        </g>
    </g>
    <defs/>
    <metadata>
        <latexdraw:metadata>
            <latexdraw:latexIncludes/>
            <latexdraw:displayXScale>true</latexdraw:displayXScale>
            <latexdraw:displayYScale>true</latexdraw:displayYScale>
            <latexdraw:unit>CM</latexdraw:unit>
            <latexdraw:zoom>0.8999999999999999</latexdraw:zoom>
            <latexdraw:magneticGridStyle>CUSTOMISED</latexdraw:magneticGridStyle>
            <latexdraw:gridGap>20</latexdraw:gridGap>
            <latexdraw:magneticGrid>true</latexdraw:magneticGrid>
            <latexdraw:version>3.3.6</latexdraw:version>
            <latexdraw:size>
                <latexdraw:width>1936</latexdraw:width>
                <latexdraw:height>1056</latexdraw:height>
            </latexdraw:size>
            <latexdraw:position>
                <latexdraw:x>-8.0</latexdraw:x>
                <latexdraw:y>-8.0</latexdraw:y>
            </latexdraw:position>
        </latexdraw:metadata>
    </metadata>
</svg>
